<?xml version="1.0" encoding="UTF-8" standalone="no"?><svg xmlns="http://www.w3.org/2000/svg" xmlns:xlink="http://www.w3.org/1999/xlink" contentScriptType="application/ecmascript" contentStyleType="text/css" height="589px" preserveAspectRatio="none" style="width:2447px;height:589px;" version="1.1" viewBox="0 0 2447 589" width="2447px" zoomAndPan="magnify"><defs><filter height="300%" id="f8kqc3zaj6dic" width="300%" x="-1" y="-1"><feGaussianBlur result="blurOut" stdDeviation="2.0"/><feColorMatrix in="blurOut" result="blurOut2" type="matrix" values="0 0 0 0 0 0 0 0 0 0 0 0 0 0 0 0 0 0 .4 0"/><feOffset dx="4.0" dy="4.0" in="blurOut2" result="blurOut3"/><feBlend in="SourceGraphic" in2="blurOut3" mode="normal"/></filter></defs><g><!--MD5=[104f2f094cc2f2154ee4b6fda04512df]
class EventMessage--><rect fill="#FEFECE" filter="url(#f8kqc3zaj6dic)" height="99.2188" id="EventMessage" style="stroke: #A80036; stroke-width: 1.5;" width="127" x="113.5" y="154"/><ellipse cx="131.65" cy="170" fill="#ADD1B2" rx="11" ry="11" style="stroke: #A80036; stroke-width: 1.0;"/><path d="M133.9938,165.6719 C133.0563,165.2344 132.4625,165.0938 131.5875,165.0938 C128.9625,165.0938 126.9625,167.1719 126.9625,169.8906 L126.9625,171.0156 C126.9625,173.5938 129.0719,175.4844 131.9625,175.4844 C133.1813,175.4844 134.3375,175.1875 135.0875,174.6406 C135.6656,174.2344 135.9938,173.7813 135.9938,173.3906 C135.9938,172.9375 135.6031,172.5469 135.1344,172.5469 C134.9156,172.5469 134.7125,172.625 134.525,172.8125 C134.0719,173.2969 134.0719,173.2969 133.8844,173.3906 C133.4625,173.6563 132.775,173.7813 132.0094,173.7813 C129.9625,173.7813 128.6656,172.6875 128.6656,170.9844 L128.6656,169.8906 C128.6656,168.1094 129.9156,166.7969 131.65,166.7969 C132.2281,166.7969 132.8375,166.9531 133.3063,167.2031 C133.7906,167.4844 133.9625,167.7031 134.0563,168.1094 C134.1188,168.5156 134.15,168.6406 134.2906,168.7656 C134.4313,168.9063 134.6656,169.0156 134.8844,169.0156 C135.15,169.0156 135.4156,168.875 135.5875,168.6563 C135.6969,168.5 135.7281,168.3125 135.7281,167.8906 L135.7281,166.4688 C135.7281,166.0313 135.7125,165.9063 135.6188,165.75 C135.4625,165.4844 135.1813,165.3438 134.8844,165.3438 C134.5875,165.3438 134.3844,165.4375 134.1656,165.75 L133.9938,165.6719 Z "/><text fill="#000000" font-family="sans-serif" font-size="12" lengthAdjust="spacingAndGlyphs" textLength="88" x="146.35" y="174.1543">EventMessage</text><line style="stroke: #A80036; stroke-width: 1.5;" x1="114.5" x2="239.5" y1="186" y2="186"/><ellipse cx="124.5" cy="197" fill="none" rx="3" ry="3" style="stroke: #038048; stroke-width: 1.0;"/><text fill="#000000" font-family="sans-serif" font-size="11" lengthAdjust="spacingAndGlyphs" textLength="88" x="133.5" y="200.2104">streamId: string</text><ellipse cx="124.5" cy="209.8047" fill="none" rx="3" ry="3" style="stroke: #038048; stroke-width: 1.0;"/><text fill="#000000" font-family="sans-serif" font-size="11" lengthAdjust="spacingAndGlyphs" textLength="101" x="133.5" y="213.0151">eventType: string</text><ellipse cx="124.5" cy="222.6094" fill="none" rx="3" ry="3" style="stroke: #038048; stroke-width: 1.0;"/><text fill="#000000" font-family="sans-serif" font-size="11" lengthAdjust="spacingAndGlyphs" textLength="67" x="133.5" y="225.8198">data: object</text><ellipse cx="124.5" cy="235.4141" fill="none" rx="3" ry="3" style="stroke: #038048; stroke-width: 1.0;"/><text fill="#000000" font-family="sans-serif" font-size="11" lengthAdjust="spacingAndGlyphs" textLength="97" x="133.5" y="238.6245">metadata: object</text><line style="stroke: #A80036; stroke-width: 1.5;" x1="114.5" x2="239.5" y1="245.2188" y2="245.2188"/><!--MD5=[628624eac2e9a9b0eb25c9a99e83214b]
class IEvent--><rect fill="#FEFECE" filter="url(#f8kqc3zaj6dic)" height="48" id="IEvent" style="stroke: #A80036; stroke-width: 1.5;" width="71" x="138.5" y="27"/><ellipse cx="153.5" cy="43" fill="#B4A7E5" rx="11" ry="11" style="stroke: #A80036; stroke-width: 1.0;"/><path d="M154.4531,39.7813 L156.1719,39.7813 C156.5625,39.7813 156.75,39.75 156.875,39.6719 C157.1406,39.5156 157.2813,39.2344 157.2813,38.9375 C157.2813,38.6719 157.1719,38.4063 156.9375,38.2344 C156.7656,38.125 156.625,38.0938 156.1719,38.0938 L151.0313,38.0938 C150.5938,38.0938 150.4688,38.1094 150.3125,38.2031 C150.0625,38.3594 149.9063,38.6563 149.9063,38.9375 C149.9063,39.2188 150.0469,39.4688 150.2656,39.6406 C150.4219,39.75 150.6094,39.7813 151.0313,39.7813 L152.75,39.7813 L152.75,46.2969 L151.0313,46.2969 C150.5938,46.2969 150.4688,46.3125 150.3125,46.4219 C150.0625,46.5781 149.9063,46.8594 149.9063,47.1563 C149.9063,47.4063 150.0469,47.6719 150.2656,47.8281 C150.4219,47.9531 150.625,48 151.0313,48 L156.1719,48 C156.9219,48 157.2813,47.7188 157.2813,47.1563 C157.2813,46.875 157.1719,46.625 156.9375,46.4531 C156.7656,46.3281 156.625,46.2969 156.1719,46.2969 L154.4531,46.2969 L154.4531,39.7813 Z "/><text fill="#000000" font-family="sans-serif" font-size="12" font-style="italic" lengthAdjust="spacingAndGlyphs" textLength="39" x="167.5" y="47.1543">IEvent</text><line style="stroke: #A80036; stroke-width: 1.5;" x1="139.5" x2="208.5" y1="59" y2="59"/><line style="stroke: #A80036; stroke-width: 1.5;" x1="139.5" x2="208.5" y1="67" y2="67"/><!--MD5=[ac13618b1a974308c1f12eb6c57723dc]
class Event--><rect fill="#FEFECE" filter="url(#f8kqc3zaj6dic)" height="86.4141" id="Event" style="stroke: #A80036; stroke-width: 1.5;" width="220" x="245" y="8"/><ellipse cx="333.25" cy="24" fill="#A9DCDF" rx="11" ry="11" style="stroke: #A80036; stroke-width: 1.0;"/><path d="M335.3281,25.8125 L335.7188,26.7969 L335.3281,26.7969 C334.875,26.7969 334.7656,26.8125 334.6094,26.9219 C334.3594,27.0781 334.2031,27.3594 334.2031,27.6563 C334.2031,27.9219 334.3438,28.1719 334.5625,28.3281 C334.7031,28.4531 334.9063,28.5 335.3281,28.5 L337.6875,28.5 C338.0469,28.5 338.2656,28.4688 338.4063,28.375 C338.6563,28.2344 338.8125,27.9375 338.8125,27.6563 C338.8125,27.375 338.6719,27.125 338.4531,26.9688 C338.2813,26.8281 338.125,26.7969 337.6563,26.7969 L334.2656,18.5938 L330.5938,18.5938 C330.1406,18.5938 330.0156,18.6094 329.8594,18.7031 C329.6094,18.875 329.4531,19.1563 329.4531,19.4375 C329.4531,19.7188 329.5938,19.9688 329.8125,20.1406 C329.9844,20.25 330.1563,20.2813 330.5938,20.2813 L331.6719,20.2813 L329.0313,26.7969 C328.6094,26.7969 328.4531,26.8125 328.2969,26.9219 C328.0469,27.0781 327.8906,27.3594 327.8906,27.6563 C327.8906,28.2188 328.2656,28.5 329.0156,28.5 L331.2813,28.5 C331.6406,28.5 331.8594,28.4688 331.9844,28.375 C332.25,28.2344 332.3906,27.9375 332.3906,27.6563 C332.3906,27.375 332.2656,27.125 332.0469,26.9531 C331.875,26.8281 331.7344,26.7969 331.2813,26.7969 L330.8906,26.7969 L331.2813,25.8125 L335.3281,25.8125 Z M334.625,24.1094 L331.9531,24.1094 L333.2969,20.8438 L334.625,24.1094 Z "/><text fill="#000000" font-family="sans-serif" font-size="12" font-style="italic" lengthAdjust="spacingAndGlyphs" textLength="35" x="353.75" y="28.1543">Event</text><line style="stroke: #A80036; stroke-width: 1.5;" x1="246" x2="464" y1="40" y2="40"/><ellipse cx="256" cy="51" fill="none" rx="3" ry="3" style="stroke: #038048; stroke-width: 1.0;"/><text fill="#000000" font-family="sans-serif" font-size="11" lengthAdjust="spacingAndGlyphs" textLength="107" x="265" y="54.2104">aggregateId: string</text><line style="stroke: #A80036; stroke-width: 1.5;" x1="246" x2="464" y1="60.8047" y2="60.8047"/><ellipse cx="256" cy="71.8047" fill="#84BE84" rx="3" ry="3" style="stroke: #038048; stroke-width: 1.0;"/><text fill="#000000" font-family="sans-serif" font-size="11" font-style="italic" lengthAdjust="spacingAndGlyphs" textLength="114" x="265" y="75.0151">streamRoot(): string</text><ellipse cx="256" cy="84.6094" fill="#84BE84" rx="3" ry="3" style="stroke: #038048; stroke-width: 1.0;"/><text fill="#000000" font-family="sans-serif" font-size="11" lengthAdjust="spacingAndGlyphs" textLength="194" x="265" y="87.8198">toEventMessage(): EventMessage</text><!--MD5=[3fff686204bb945e5d4140aaa7c1340b]
class OwnerEvent--><rect fill="#FEFECE" filter="url(#f8kqc3zaj6dic)" height="73.6094" id="OwnerEvent" style="stroke: #A80036; stroke-width: 1.5;" width="137" x="282.5" y="166.5"/><ellipse cx="311.45" cy="182.5" fill="#A9DCDF" rx="11" ry="11" style="stroke: #A80036; stroke-width: 1.0;"/><path d="M313.5281,184.3125 L313.9188,185.2969 L313.5281,185.2969 C313.075,185.2969 312.9656,185.3125 312.8094,185.4219 C312.5594,185.5781 312.4031,185.8594 312.4031,186.1563 C312.4031,186.4219 312.5438,186.6719 312.7625,186.8281 C312.9031,186.9531 313.1063,187 313.5281,187 L315.8875,187 C316.2469,187 316.4656,186.9688 316.6063,186.875 C316.8563,186.7344 317.0125,186.4375 317.0125,186.1563 C317.0125,185.875 316.8719,185.625 316.6531,185.4688 C316.4813,185.3281 316.325,185.2969 315.8563,185.2969 L312.4656,177.0938 L308.7938,177.0938 C308.3406,177.0938 308.2156,177.1094 308.0594,177.2031 C307.8094,177.375 307.6531,177.6563 307.6531,177.9375 C307.6531,178.2188 307.7938,178.4688 308.0125,178.6406 C308.1844,178.75 308.3563,178.7813 308.7938,178.7813 L309.8719,178.7813 L307.2313,185.2969 C306.8094,185.2969 306.6531,185.3125 306.4969,185.4219 C306.2469,185.5781 306.0906,185.8594 306.0906,186.1563 C306.0906,186.7188 306.4656,187 307.2156,187 L309.4813,187 C309.8406,187 310.0594,186.9688 310.1844,186.875 C310.45,186.7344 310.5906,186.4375 310.5906,186.1563 C310.5906,185.875 310.4656,185.625 310.2469,185.4531 C310.075,185.3281 309.9344,185.2969 309.4813,185.2969 L309.0906,185.2969 L309.4813,184.3125 L313.5281,184.3125 Z M312.825,182.6094 L310.1531,182.6094 L311.4969,179.3438 L312.825,182.6094 Z "/><text fill="#000000" font-family="sans-serif" font-size="12" font-style="italic" lengthAdjust="spacingAndGlyphs" textLength="74" x="328.55" y="186.6543">OwnerEvent</text><line style="stroke: #A80036; stroke-width: 1.5;" x1="283.5" x2="418.5" y1="198.5" y2="198.5"/><ellipse cx="293.5" cy="209.5" fill="none" rx="3" ry="3" style="stroke: #038048; stroke-width: 1.0;"/><text fill="#000000" font-family="sans-serif" font-size="11" lengthAdjust="spacingAndGlyphs" textLength="83" x="302.5" y="212.7104">ownerId: string</text><line style="stroke: #A80036; stroke-width: 1.5;" x1="283.5" x2="418.5" y1="219.3047" y2="219.3047"/><ellipse cx="293.5" cy="230.3047" fill="#84BE84" rx="3" ry="3" style="stroke: #038048; stroke-width: 1.0;"/><text fill="#000000" font-family="sans-serif" font-size="11" lengthAdjust="spacingAndGlyphs" textLength="111" x="302.5" y="233.5151">streamRoot(): string</text><!--MD5=[97441ddc76591b31c401ce8d003af06c]
class OwnerRegistered--><rect fill="#FEFECE" filter="url(#f8kqc3zaj6dic)" height="137.6328" id="OwnerRegistered" style="stroke: #A80036; stroke-width: 1.5;" width="150" x="6" y="377"/><ellipse cx="26.4" cy="393" fill="#ADD1B2" rx="11" ry="11" style="stroke: #A80036; stroke-width: 1.0;"/><path d="M28.7438,388.6719 C27.8063,388.2344 27.2125,388.0938 26.3375,388.0938 C23.7125,388.0938 21.7125,390.1719 21.7125,392.8906 L21.7125,394.0156 C21.7125,396.5938 23.8219,398.4844 26.7125,398.4844 C27.9313,398.4844 29.0875,398.1875 29.8375,397.6406 C30.4156,397.2344 30.7438,396.7813 30.7438,396.3906 C30.7438,395.9375 30.3531,395.5469 29.8844,395.5469 C29.6656,395.5469 29.4625,395.625 29.275,395.8125 C28.8219,396.2969 28.8219,396.2969 28.6344,396.3906 C28.2125,396.6563 27.525,396.7813 26.7594,396.7813 C24.7125,396.7813 23.4156,395.6875 23.4156,393.9844 L23.4156,392.8906 C23.4156,391.1094 24.6656,389.7969 26.4,389.7969 C26.9781,389.7969 27.5875,389.9531 28.0563,390.2031 C28.5406,390.4844 28.7125,390.7031 28.8063,391.1094 C28.8688,391.5156 28.9,391.6406 29.0406,391.7656 C29.1813,391.9063 29.4156,392.0156 29.6344,392.0156 C29.9,392.0156 30.1656,391.875 30.3375,391.6563 C30.4469,391.5 30.4781,391.3125 30.4781,390.8906 L30.4781,389.4688 C30.4781,389.0313 30.4625,388.9063 30.3688,388.75 C30.2125,388.4844 29.9313,388.3438 29.6344,388.3438 C29.3375,388.3438 29.1344,388.4375 28.9156,388.75 L28.7438,388.6719 Z "/><text fill="#000000" font-family="sans-serif" font-size="12" lengthAdjust="spacingAndGlyphs" textLength="106" x="41.6" y="397.1543">OwnerRegistered</text><line style="stroke: #A80036; stroke-width: 1.5;" x1="7" x2="155" y1="409" y2="409"/><ellipse cx="17" cy="420" fill="none" rx="3" ry="3" style="stroke: #038048; stroke-width: 1.0;"/><text fill="#000000" font-family="sans-serif" font-size="11" lengthAdjust="spacingAndGlyphs" textLength="77" x="26" y="423.2104">nodeId: string</text><ellipse cx="17" cy="432.8047" fill="none" rx="3" ry="3" style="stroke: #038048; stroke-width: 1.0;"/><text fill="#000000" font-family="sans-serif" font-size="11" lengthAdjust="spacingAndGlyphs" textLength="67" x="26" y="436.0151">ssoId: string</text><ellipse cx="17" cy="445.6094" fill="none" rx="3" ry="3" style="stroke: #038048; stroke-width: 1.0;"/><text fill="#000000" font-family="sans-serif" font-size="11" lengthAdjust="spacingAndGlyphs" textLength="70" x="26" y="448.8198">email: string</text><ellipse cx="17" cy="458.4141" fill="none" rx="3" ry="3" style="stroke: #038048; stroke-width: 1.0;"/><text fill="#000000" font-family="sans-serif" font-size="11" lengthAdjust="spacingAndGlyphs" textLength="105" x="26" y="461.6245">publicName: string</text><ellipse cx="17" cy="471.2188" fill="none" rx="3" ry="3" style="stroke: #038048; stroke-width: 1.0;"/><text fill="#000000" font-family="sans-serif" font-size="11" lengthAdjust="spacingAndGlyphs" textLength="71" x="26" y="474.4292">name: string</text><ellipse cx="17" cy="484.0234" fill="none" rx="3" ry="3" style="stroke: #038048; stroke-width: 1.0;"/><text fill="#000000" font-family="sans-serif" font-size="11" lengthAdjust="spacingAndGlyphs" textLength="124" x="26" y="487.2339">companyName: string</text><ellipse cx="17" cy="496.8281" fill="none" rx="3" ry="3" style="stroke: #038048; stroke-width: 1.0;"/><text fill="#000000" font-family="sans-serif" font-size="11" lengthAdjust="spacingAndGlyphs" textLength="83" x="26" y="500.0386">website: string</text><line style="stroke: #A80036; stroke-width: 1.5;" x1="7" x2="155" y1="506.6328" y2="506.6328"/><!--MD5=[e4ccc208087c3c2c41994e04d72abb71]
class OwnerUpdated--><rect fill="#FEFECE" filter="url(#f8kqc3zaj6dic)" height="124.8281" id="OwnerUpdated" style="stroke: #A80036; stroke-width: 1.5;" width="150" x="191" y="383.5"/><ellipse cx="217.7" cy="399.5" fill="#ADD1B2" rx="11" ry="11" style="stroke: #A80036; stroke-width: 1.0;"/><path d="M220.0438,395.1719 C219.1063,394.7344 218.5125,394.5938 217.6375,394.5938 C215.0125,394.5938 213.0125,396.6719 213.0125,399.3906 L213.0125,400.5156 C213.0125,403.0938 215.1219,404.9844 218.0125,404.9844 C219.2313,404.9844 220.3875,404.6875 221.1375,404.1406 C221.7156,403.7344 222.0438,403.2813 222.0438,402.8906 C222.0438,402.4375 221.6531,402.0469 221.1844,402.0469 C220.9656,402.0469 220.7625,402.125 220.575,402.3125 C220.1219,402.7969 220.1219,402.7969 219.9344,402.8906 C219.5125,403.1563 218.825,403.2813 218.0594,403.2813 C216.0125,403.2813 214.7156,402.1875 214.7156,400.4844 L214.7156,399.3906 C214.7156,397.6094 215.9656,396.2969 217.7,396.2969 C218.2781,396.2969 218.8875,396.4531 219.3563,396.7031 C219.8406,396.9844 220.0125,397.2031 220.1063,397.6094 C220.1688,398.0156 220.2,398.1406 220.3406,398.2656 C220.4813,398.4063 220.7156,398.5156 220.9344,398.5156 C221.2,398.5156 221.4656,398.375 221.6375,398.1563 C221.7469,398 221.7781,397.8125 221.7781,397.3906 L221.7781,395.9688 C221.7781,395.5313 221.7625,395.4063 221.6688,395.25 C221.5125,394.9844 221.2313,394.8438 220.9344,394.8438 C220.6375,394.8438 220.4344,394.9375 220.2156,395.25 L220.0438,395.1719 Z "/><text fill="#000000" font-family="sans-serif" font-size="12" lengthAdjust="spacingAndGlyphs" textLength="92" x="234.3" y="403.6543">OwnerUpdated</text><line style="stroke: #A80036; stroke-width: 1.5;" x1="192" x2="340" y1="415.5" y2="415.5"/><ellipse cx="202" cy="426.5" fill="none" rx="3" ry="3" style="stroke: #038048; stroke-width: 1.0;"/><text fill="#000000" font-family="sans-serif" font-size="11" lengthAdjust="spacingAndGlyphs" textLength="67" x="211" y="429.7104">ssoId: string</text><ellipse cx="202" cy="439.3047" fill="none" rx="3" ry="3" style="stroke: #038048; stroke-width: 1.0;"/><text fill="#000000" font-family="sans-serif" font-size="11" lengthAdjust="spacingAndGlyphs" textLength="70" x="211" y="442.5151">email: string</text><ellipse cx="202" cy="452.1094" fill="none" rx="3" ry="3" style="stroke: #038048; stroke-width: 1.0;"/><text fill="#000000" font-family="sans-serif" font-size="11" lengthAdjust="spacingAndGlyphs" textLength="105" x="211" y="455.3198">publicName: string</text><ellipse cx="202" cy="464.9141" fill="none" rx="3" ry="3" style="stroke: #038048; stroke-width: 1.0;"/><text fill="#000000" font-family="sans-serif" font-size="11" lengthAdjust="spacingAndGlyphs" textLength="71" x="211" y="468.1245">name: string</text><ellipse cx="202" cy="477.7188" fill="none" rx="3" ry="3" style="stroke: #038048; stroke-width: 1.0;"/><text fill="#000000" font-family="sans-serif" font-size="11" lengthAdjust="spacingAndGlyphs" textLength="124" x="211" y="480.9292">companyName: string</text><ellipse cx="202" cy="490.5234" fill="none" rx="3" ry="3" style="stroke: #038048; stroke-width: 1.0;"/><text fill="#000000" font-family="sans-serif" font-size="11" lengthAdjust="spacingAndGlyphs" textLength="83" x="211" y="493.7339">website: string</text><line style="stroke: #A80036; stroke-width: 1.5;" x1="192" x2="340" y1="500.3281" y2="500.3281"/><!--MD5=[3eae5c6410172be47bd344033b80e140]
class OwnerDeleted--><rect fill="#FEFECE" filter="url(#f8kqc3zaj6dic)" height="48" id="OwnerDeleted" style="stroke: #A80036; stroke-width: 1.5;" width="120" x="376" y="422"/><ellipse cx="391" cy="438" fill="#ADD1B2" rx="11" ry="11" style="stroke: #A80036; stroke-width: 1.0;"/><path d="M393.3438,433.6719 C392.4063,433.2344 391.8125,433.0938 390.9375,433.0938 C388.3125,433.0938 386.3125,435.1719 386.3125,437.8906 L386.3125,439.0156 C386.3125,441.5938 388.4219,443.4844 391.3125,443.4844 C392.5313,443.4844 393.6875,443.1875 394.4375,442.6406 C395.0156,442.2344 395.3438,441.7813 395.3438,441.3906 C395.3438,440.9375 394.9531,440.5469 394.4844,440.5469 C394.2656,440.5469 394.0625,440.625 393.875,440.8125 C393.4219,441.2969 393.4219,441.2969 393.2344,441.3906 C392.8125,441.6563 392.125,441.7813 391.3594,441.7813 C389.3125,441.7813 388.0156,440.6875 388.0156,438.9844 L388.0156,437.8906 C388.0156,436.1094 389.2656,434.7969 391,434.7969 C391.5781,434.7969 392.1875,434.9531 392.6563,435.2031 C393.1406,435.4844 393.3125,435.7031 393.4063,436.1094 C393.4688,436.5156 393.5,436.6406 393.6406,436.7656 C393.7813,436.9063 394.0156,437.0156 394.2344,437.0156 C394.5,437.0156 394.7656,436.875 394.9375,436.6563 C395.0469,436.5 395.0781,436.3125 395.0781,435.8906 L395.0781,434.4688 C395.0781,434.0313 395.0625,433.9063 394.9688,433.75 C394.8125,433.4844 394.5313,433.3438 394.2344,433.3438 C393.9375,433.3438 393.7344,433.4375 393.5156,433.75 L393.3438,433.6719 Z "/><text fill="#000000" font-family="sans-serif" font-size="12" lengthAdjust="spacingAndGlyphs" textLength="88" x="405" y="442.1543">OwnerDeleted</text><line style="stroke: #A80036; stroke-width: 1.5;" x1="377" x2="495" y1="454" y2="454"/><line style="stroke: #A80036; stroke-width: 1.5;" x1="377" x2="495" y1="462" y2="462"/><!--MD5=[d51f0b05aa34393a69e2c37c31f0908f]
class OwnerEventType--><rect fill="#FEFECE" filter="url(#f8kqc3zaj6dic)" height="86.4141" id="OwnerEventType" style="stroke: #A80036; stroke-width: 1.5;" width="245" x="500.5" y="8"/><ellipse cx="567.25" cy="24" fill="#ADD1B2" rx="11" ry="11" style="stroke: #A80036; stroke-width: 1.0;"/><path d="M569.5938,19.6719 C568.6563,19.2344 568.0625,19.0938 567.1875,19.0938 C564.5625,19.0938 562.5625,21.1719 562.5625,23.8906 L562.5625,25.0156 C562.5625,27.5938 564.6719,29.4844 567.5625,29.4844 C568.7813,29.4844 569.9375,29.1875 570.6875,28.6406 C571.2656,28.2344 571.5938,27.7813 571.5938,27.3906 C571.5938,26.9375 571.2031,26.5469 570.7344,26.5469 C570.5156,26.5469 570.3125,26.625 570.125,26.8125 C569.6719,27.2969 569.6719,27.2969 569.4844,27.3906 C569.0625,27.6563 568.375,27.7813 567.6094,27.7813 C565.5625,27.7813 564.2656,26.6875 564.2656,24.9844 L564.2656,23.8906 C564.2656,22.1094 565.5156,20.7969 567.25,20.7969 C567.8281,20.7969 568.4375,20.9531 568.9063,21.2031 C569.3906,21.4844 569.5625,21.7031 569.6563,22.1094 C569.7188,22.5156 569.75,22.6406 569.8906,22.7656 C570.0313,22.9063 570.2656,23.0156 570.4844,23.0156 C570.75,23.0156 571.0156,22.875 571.1875,22.6563 C571.2969,22.5 571.3281,22.3125 571.3281,21.8906 L571.3281,20.4688 C571.3281,20.0313 571.3125,19.9063 571.2188,19.75 C571.0625,19.4844 570.7813,19.3438 570.4844,19.3438 C570.1875,19.3438 569.9844,19.4375 569.7656,19.75 L569.5938,19.6719 Z "/><text fill="#000000" font-family="sans-serif" font-size="12" lengthAdjust="spacingAndGlyphs" textLength="103" x="587.75" y="28.1543">OwnerEventType</text><line style="stroke: #A80036; stroke-width: 1.5;" x1="501.5" x2="744.5" y1="40" y2="40"/><rect fill="none" height="6" style="stroke: #C82930; stroke-width: 1.0;" width="6" x="508.5" y="48"/><text fill="#000000" font-family="sans-serif" font-size="11" lengthAdjust="spacingAndGlyphs" textLength="219" x="520.5" y="54.2104">supportedTypes: { [key: string]: any; }</text><line style="stroke: #A80036; stroke-width: 1.5;" x1="501.5" x2="744.5" y1="60.8047" y2="60.8047"/><ellipse cx="511.5" cy="71.8047" fill="#84BE84" rx="3" ry="3" style="stroke: #038048; stroke-width: 1.0;"/><text fill="#000000" font-family="sans-serif" font-size="11" lengthAdjust="spacingAndGlyphs" textLength="219" x="520.5" y="75.0151">getType(eventTypeName: string): any</text><rect fill="#F24D5C" height="6" style="stroke: #C82930; stroke-width: 1.0;" width="6" x="508.5" y="81.6094"/><text fill="#000000" font-family="sans-serif" font-size="11" lengthAdjust="spacingAndGlyphs" textLength="122" x="520.5" y="87.8198">add(event: any): void</text><!--MD5=[a24b766aa401b24b37709ee2e7ea9923]
class SensorEvent--><rect fill="#FEFECE" filter="url(#f8kqc3zaj6dic)" height="73.6094" id="SensorEvent" style="stroke: #A80036; stroke-width: 1.5;" width="137" x="1298.5" y="166.5"/><ellipse cx="1326.55" cy="182.5" fill="#A9DCDF" rx="11" ry="11" style="stroke: #A80036; stroke-width: 1.0;"/><path d="M1328.6281,184.3125 L1329.0188,185.2969 L1328.6281,185.2969 C1328.175,185.2969 1328.0656,185.3125 1327.9094,185.4219 C1327.6594,185.5781 1327.5031,185.8594 1327.5031,186.1563 C1327.5031,186.4219 1327.6438,186.6719 1327.8625,186.8281 C1328.0031,186.9531 1328.2063,187 1328.6281,187 L1330.9875,187 C1331.3469,187 1331.5656,186.9688 1331.7063,186.875 C1331.9563,186.7344 1332.1125,186.4375 1332.1125,186.1563 C1332.1125,185.875 1331.9719,185.625 1331.7531,185.4688 C1331.5813,185.3281 1331.425,185.2969 1330.9563,185.2969 L1327.5656,177.0938 L1323.8938,177.0938 C1323.4406,177.0938 1323.3156,177.1094 1323.1594,177.2031 C1322.9094,177.375 1322.7531,177.6563 1322.7531,177.9375 C1322.7531,178.2188 1322.8938,178.4688 1323.1125,178.6406 C1323.2844,178.75 1323.4563,178.7813 1323.8938,178.7813 L1324.9719,178.7813 L1322.3313,185.2969 C1321.9094,185.2969 1321.7531,185.3125 1321.5969,185.4219 C1321.3469,185.5781 1321.1906,185.8594 1321.1906,186.1563 C1321.1906,186.7188 1321.5656,187 1322.3156,187 L1324.5813,187 C1324.9406,187 1325.1594,186.9688 1325.2844,186.875 C1325.55,186.7344 1325.6906,186.4375 1325.6906,186.1563 C1325.6906,185.875 1325.5656,185.625 1325.3469,185.4531 C1325.175,185.3281 1325.0344,185.2969 1324.5813,185.2969 L1324.1906,185.2969 L1324.5813,184.3125 L1328.6281,184.3125 Z M1327.925,182.6094 L1325.2531,182.6094 L1326.5969,179.3438 L1327.925,182.6094 Z "/><text fill="#000000" font-family="sans-serif" font-size="12" font-style="italic" lengthAdjust="spacingAndGlyphs" textLength="76" x="1343.45" y="186.6543">SensorEvent</text><line style="stroke: #A80036; stroke-width: 1.5;" x1="1299.5" x2="1434.5" y1="198.5" y2="198.5"/><ellipse cx="1309.5" cy="209.5" fill="none" rx="3" ry="3" style="stroke: #038048; stroke-width: 1.0;"/><text fill="#000000" font-family="sans-serif" font-size="11" lengthAdjust="spacingAndGlyphs" textLength="86" x="1318.5" y="212.7104">sensorId: string</text><line style="stroke: #A80036; stroke-width: 1.5;" x1="1299.5" x2="1434.5" y1="219.3047" y2="219.3047"/><ellipse cx="1309.5" cy="230.3047" fill="#84BE84" rx="3" ry="3" style="stroke: #038048; stroke-width: 1.0;"/><text fill="#000000" font-family="sans-serif" font-size="11" lengthAdjust="spacingAndGlyphs" textLength="111" x="1318.5" y="233.5151">streamRoot(): string</text><!--MD5=[1d5b4405d13d84db08d2386681619536]
class SensorActivated--><rect fill="#FEFECE" filter="url(#f8kqc3zaj6dic)" height="48" id="SensorActivated" style="stroke: #A80036; stroke-width: 1.5;" width="131" x="531.5" y="422"/><ellipse cx="546.5" cy="438" fill="#ADD1B2" rx="11" ry="11" style="stroke: #A80036; stroke-width: 1.0;"/><path d="M548.8438,433.6719 C547.9063,433.2344 547.3125,433.0938 546.4375,433.0938 C543.8125,433.0938 541.8125,435.1719 541.8125,437.8906 L541.8125,439.0156 C541.8125,441.5938 543.9219,443.4844 546.8125,443.4844 C548.0313,443.4844 549.1875,443.1875 549.9375,442.6406 C550.5156,442.2344 550.8438,441.7813 550.8438,441.3906 C550.8438,440.9375 550.4531,440.5469 549.9844,440.5469 C549.7656,440.5469 549.5625,440.625 549.375,440.8125 C548.9219,441.2969 548.9219,441.2969 548.7344,441.3906 C548.3125,441.6563 547.625,441.7813 546.8594,441.7813 C544.8125,441.7813 543.5156,440.6875 543.5156,438.9844 L543.5156,437.8906 C543.5156,436.1094 544.7656,434.7969 546.5,434.7969 C547.0781,434.7969 547.6875,434.9531 548.1563,435.2031 C548.6406,435.4844 548.8125,435.7031 548.9063,436.1094 C548.9688,436.5156 549,436.6406 549.1406,436.7656 C549.2813,436.9063 549.5156,437.0156 549.7344,437.0156 C550,437.0156 550.2656,436.875 550.4375,436.6563 C550.5469,436.5 550.5781,436.3125 550.5781,435.8906 L550.5781,434.4688 C550.5781,434.0313 550.5625,433.9063 550.4688,433.75 C550.3125,433.4844 550.0313,433.3438 549.7344,433.3438 C549.4375,433.3438 549.2344,433.4375 549.0156,433.75 L548.8438,433.6719 Z "/><text fill="#000000" font-family="sans-serif" font-size="12" lengthAdjust="spacingAndGlyphs" textLength="99" x="560.5" y="442.1543">SensorActivated</text><line style="stroke: #A80036; stroke-width: 1.5;" x1="532.5" x2="661.5" y1="454" y2="454"/><line style="stroke: #A80036; stroke-width: 1.5;" x1="532.5" x2="661.5" y1="462" y2="462"/><!--MD5=[eaa8789abd28f7dc39530ac811961356]
class SensorRegistered--><rect fill="#FEFECE" filter="url(#f8kqc3zaj6dic)" height="265.6797" id="SensorRegistered" style="stroke: #A80036; stroke-width: 1.5;" width="164" x="698" y="313"/><ellipse cx="723.35" cy="329" fill="#ADD1B2" rx="11" ry="11" style="stroke: #A80036; stroke-width: 1.0;"/><path d="M725.6938,324.6719 C724.7563,324.2344 724.1625,324.0938 723.2875,324.0938 C720.6625,324.0938 718.6625,326.1719 718.6625,328.8906 L718.6625,330.0156 C718.6625,332.5938 720.7719,334.4844 723.6625,334.4844 C724.8813,334.4844 726.0375,334.1875 726.7875,333.6406 C727.3656,333.2344 727.6938,332.7813 727.6938,332.3906 C727.6938,331.9375 727.3031,331.5469 726.8344,331.5469 C726.6156,331.5469 726.4125,331.625 726.225,331.8125 C725.7719,332.2969 725.7719,332.2969 725.5844,332.3906 C725.1625,332.6563 724.475,332.7813 723.7094,332.7813 C721.6625,332.7813 720.3656,331.6875 720.3656,329.9844 L720.3656,328.8906 C720.3656,327.1094 721.6156,325.7969 723.35,325.7969 C723.9281,325.7969 724.5375,325.9531 725.0063,326.2031 C725.4906,326.4844 725.6625,326.7031 725.7563,327.1094 C725.8188,327.5156 725.85,327.6406 725.9906,327.7656 C726.1313,327.9063 726.3656,328.0156 726.5844,328.0156 C726.85,328.0156 727.1156,327.875 727.2875,327.6563 C727.3969,327.5 727.4281,327.3125 727.4281,326.8906 L727.4281,325.4688 C727.4281,325.0313 727.4125,324.9063 727.3188,324.75 C727.1625,324.4844 726.8813,324.3438 726.5844,324.3438 C726.2875,324.3438 726.0844,324.4375 725.8656,324.75 L725.6938,324.6719 Z "/><text fill="#000000" font-family="sans-serif" font-size="12" lengthAdjust="spacingAndGlyphs" textLength="109" x="739.65" y="333.1543">SensorRegistered</text><line style="stroke: #A80036; stroke-width: 1.5;" x1="699" x2="861" y1="345" y2="345"/><ellipse cx="709" cy="356" fill="none" rx="3" ry="3" style="stroke: #038048; stroke-width: 1.0;"/><text fill="#000000" font-family="sans-serif" font-size="11" lengthAdjust="spacingAndGlyphs" textLength="77" x="718" y="359.2104">nodeId: string</text><ellipse cx="709" cy="368.8047" fill="none" rx="3" ry="3" style="stroke: #038048; stroke-width: 1.0;"/><text fill="#000000" font-family="sans-serif" font-size="11" lengthAdjust="spacingAndGlyphs" textLength="97" x="718" y="372.0151">ownerIds: string[]</text><ellipse cx="709" cy="381.6094" fill="none" rx="3" ry="3" style="stroke: #038048; stroke-width: 1.0;"/><text fill="#000000" font-family="sans-serif" font-size="11" lengthAdjust="spacingAndGlyphs" textLength="71" x="718" y="384.8198">name: string</text><ellipse cx="709" cy="394.4141" fill="none" rx="3" ry="3" style="stroke: #038048; stroke-width: 1.0;"/><text fill="#000000" font-family="sans-serif" font-size="11" lengthAdjust="spacingAndGlyphs" textLength="58" x="718" y="397.6245">x: number</text><ellipse cx="709" cy="407.2188" fill="none" rx="3" ry="3" style="stroke: #038048; stroke-width: 1.0;"/><text fill="#000000" font-family="sans-serif" font-size="11" lengthAdjust="spacingAndGlyphs" textLength="58" x="718" y="410.4292">y: number</text><ellipse cx="709" cy="420.0234" fill="none" rx="3" ry="3" style="stroke: #038048; stroke-width: 1.0;"/><text fill="#000000" font-family="sans-serif" font-size="11" lengthAdjust="spacingAndGlyphs" textLength="58" x="718" y="423.2339">z: number</text><ellipse cx="709" cy="432.8281" fill="none" rx="3" ry="3" style="stroke: #038048; stroke-width: 1.0;"/><text fill="#000000" font-family="sans-serif" font-size="11" lengthAdjust="spacingAndGlyphs" textLength="109" x="718" y="436.0386">epsgCode: number</text><ellipse cx="709" cy="445.6328" fill="none" rx="3" ry="3" style="stroke: #038048; stroke-width: 1.0;"/><text fill="#000000" font-family="sans-serif" font-size="11" lengthAdjust="spacingAndGlyphs" textLength="113" x="718" y="448.8433">baseObjectId: string</text><ellipse cx="709" cy="458.4375" fill="none" rx="3" ry="3" style="stroke: #038048; stroke-width: 1.0;"/><text fill="#000000" font-family="sans-serif" font-size="11" lengthAdjust="spacingAndGlyphs" textLength="59" x="718" y="461.6479">aim: string</text><ellipse cx="709" cy="471.2422" fill="none" rx="3" ry="3" style="stroke: #038048; stroke-width: 1.0;"/><text fill="#000000" font-family="sans-serif" font-size="11" lengthAdjust="spacingAndGlyphs" textLength="100" x="718" y="474.4526">description: string</text><ellipse cx="709" cy="484.0469" fill="none" rx="3" ry="3" style="stroke: #038048; stroke-width: 1.0;"/><text fill="#000000" font-family="sans-serif" font-size="11" lengthAdjust="spacingAndGlyphs" textLength="114" x="718" y="487.2573">manufacturer: string</text><ellipse cx="709" cy="496.8516" fill="none" rx="3" ry="3" style="stroke: #038048; stroke-width: 1.0;"/><text fill="#000000" font-family="sans-serif" font-size="11" lengthAdjust="spacingAndGlyphs" textLength="88" x="718" y="500.062">active: boolean</text><ellipse cx="709" cy="509.6563" fill="none" rx="3" ry="3" style="stroke: #038048; stroke-width: 1.0;"/><text fill="#000000" font-family="sans-serif" font-size="11" lengthAdjust="spacingAndGlyphs" textLength="136" x="718" y="512.8667">observationArea: object</text><ellipse cx="709" cy="522.4609" fill="none" rx="3" ry="3" style="stroke: #038048; stroke-width: 1.0;"/><text fill="#000000" font-family="sans-serif" font-size="11" lengthAdjust="spacingAndGlyphs" textLength="138" x="718" y="525.6714">documentationUrl: string</text><ellipse cx="709" cy="535.2656" fill="none" rx="3" ry="3" style="stroke: #038048; stroke-width: 1.0;"/><text fill="#000000" font-family="sans-serif" font-size="11" lengthAdjust="spacingAndGlyphs" textLength="84" x="718" y="538.4761">theme: string[]</text><ellipse cx="709" cy="548.0703" fill="none" rx="3" ry="3" style="stroke: #038048; stroke-width: 1.0;"/><text fill="#000000" font-family="sans-serif" font-size="11" lengthAdjust="spacingAndGlyphs" textLength="98" x="718" y="551.2808">typeName: string</text><ellipse cx="709" cy="560.875" fill="none" rx="3" ry="3" style="stroke: #038048; stroke-width: 1.0;"/><text fill="#000000" font-family="sans-serif" font-size="11" lengthAdjust="spacingAndGlyphs" textLength="108" x="718" y="564.0854">typeDetails: object</text><line style="stroke: #A80036; stroke-width: 1.5;" x1="699" x2="861" y1="570.6797" y2="570.6797"/><!--MD5=[3a49dcf64c6044691d75787ca2524cc2]
class DatastreamAdded--><rect fill="#FEFECE" filter="url(#f8kqc3zaj6dic)" height="214.4609" id="DatastreamAdded" style="stroke: #A80036; stroke-width: 1.5;" width="177" x="897.5" y="339"/><ellipse cx="928.7" cy="355" fill="#ADD1B2" rx="11" ry="11" style="stroke: #A80036; stroke-width: 1.0;"/><path d="M931.0438,350.6719 C930.1063,350.2344 929.5125,350.0938 928.6375,350.0938 C926.0125,350.0938 924.0125,352.1719 924.0125,354.8906 L924.0125,356.0156 C924.0125,358.5938 926.1219,360.4844 929.0125,360.4844 C930.2313,360.4844 931.3875,360.1875 932.1375,359.6406 C932.7156,359.2344 933.0438,358.7813 933.0438,358.3906 C933.0438,357.9375 932.6531,357.5469 932.1844,357.5469 C931.9656,357.5469 931.7625,357.625 931.575,357.8125 C931.1219,358.2969 931.1219,358.2969 930.9344,358.3906 C930.5125,358.6563 929.825,358.7813 929.0594,358.7813 C927.0125,358.7813 925.7156,357.6875 925.7156,355.9844 L925.7156,354.8906 C925.7156,353.1094 926.9656,351.7969 928.7,351.7969 C929.2781,351.7969 929.8875,351.9531 930.3563,352.2031 C930.8406,352.4844 931.0125,352.7031 931.1063,353.1094 C931.1688,353.5156 931.2,353.6406 931.3406,353.7656 C931.4813,353.9063 931.7156,354.0156 931.9344,354.0156 C932.2,354.0156 932.4656,353.875 932.6375,353.6563 C932.7469,353.5 932.7781,353.3125 932.7781,352.8906 L932.7781,351.4688 C932.7781,351.0313 932.7625,350.9063 932.6688,350.75 C932.5125,350.4844 932.2313,350.3438 931.9344,350.3438 C931.6375,350.3438 931.4344,350.4375 931.2156,350.75 L931.0438,350.6719 Z "/><text fill="#000000" font-family="sans-serif" font-size="12" lengthAdjust="spacingAndGlyphs" textLength="109" x="946.3" y="359.1543">DatastreamAdded</text><line style="stroke: #A80036; stroke-width: 1.5;" x1="898.5" x2="1073.5" y1="371" y2="371"/><ellipse cx="908.5" cy="382" fill="none" rx="3" ry="3" style="stroke: #038048; stroke-width: 1.0;"/><text fill="#000000" font-family="sans-serif" font-size="11" lengthAdjust="spacingAndGlyphs" textLength="115" x="917.5" y="385.2104">datastreamId: string</text><ellipse cx="908.5" cy="394.8047" fill="none" rx="3" ry="3" style="stroke: #038048; stroke-width: 1.0;"/><text fill="#000000" font-family="sans-serif" font-size="11" lengthAdjust="spacingAndGlyphs" textLength="71" x="917.5" y="398.0151">name: string</text><ellipse cx="908.5" cy="407.6094" fill="none" rx="3" ry="3" style="stroke: #038048; stroke-width: 1.0;"/><text fill="#000000" font-family="sans-serif" font-size="11" lengthAdjust="spacingAndGlyphs" textLength="77" x="917.5" y="410.8198">reason: string</text><ellipse cx="908.5" cy="420.4141" fill="none" rx="3" ry="3" style="stroke: #038048; stroke-width: 1.0;"/><text fill="#000000" font-family="sans-serif" font-size="11" lengthAdjust="spacingAndGlyphs" textLength="100" x="917.5" y="423.6245">description: string</text><ellipse cx="908.5" cy="433.2188" fill="none" rx="3" ry="3" style="stroke: #038048; stroke-width: 1.0;"/><text fill="#000000" font-family="sans-serif" font-size="11" lengthAdjust="spacingAndGlyphs" textLength="139" x="917.5" y="436.4292">observedProperty: string</text><ellipse cx="908.5" cy="446.0234" fill="none" rx="3" ry="3" style="stroke: #038048; stroke-width: 1.0;"/><text fill="#000000" font-family="sans-serif" font-size="11" lengthAdjust="spacingAndGlyphs" textLength="151" x="917.5" y="449.2339">unitOfMeasurement: string</text><ellipse cx="908.5" cy="458.8281" fill="none" rx="3" ry="3" style="stroke: #038048; stroke-width: 1.0;"/><text fill="#000000" font-family="sans-serif" font-size="11" lengthAdjust="spacingAndGlyphs" textLength="94" x="917.5" y="462.0386">isPublic: boolean</text><ellipse cx="908.5" cy="471.6328" fill="none" rx="3" ry="3" style="stroke: #038048; stroke-width: 1.0;"/><text fill="#000000" font-family="sans-serif" font-size="11" lengthAdjust="spacingAndGlyphs" textLength="120" x="917.5" y="474.8433">isOpenData: boolean</text><ellipse cx="908.5" cy="484.4375" fill="none" rx="3" ry="3" style="stroke: #038048; stroke-width: 1.0;"/><text fill="#000000" font-family="sans-serif" font-size="11" lengthAdjust="spacingAndGlyphs" textLength="115" x="917.5" y="487.6479">isReusable: boolean</text><ellipse cx="908.5" cy="497.2422" fill="none" rx="3" ry="3" style="stroke: #038048; stroke-width: 1.0;"/><text fill="#000000" font-family="sans-serif" font-size="11" lengthAdjust="spacingAndGlyphs" textLength="138" x="917.5" y="500.4526">documentationUrl: string</text><ellipse cx="908.5" cy="510.0469" fill="none" rx="3" ry="3" style="stroke: #038048; stroke-width: 1.0;"/><text fill="#000000" font-family="sans-serif" font-size="11" lengthAdjust="spacingAndGlyphs" textLength="85" x="917.5" y="513.2573">dataLink: string</text><ellipse cx="908.5" cy="522.8516" fill="none" rx="3" ry="3" style="stroke: #038048; stroke-width: 1.0;"/><text fill="#000000" font-family="sans-serif" font-size="11" lengthAdjust="spacingAndGlyphs" textLength="136" x="917.5" y="526.062">dataFrequency: number</text><ellipse cx="908.5" cy="535.6563" fill="none" rx="3" ry="3" style="stroke: #038048; stroke-width: 1.0;"/><text fill="#000000" font-family="sans-serif" font-size="11" lengthAdjust="spacingAndGlyphs" textLength="116" x="917.5" y="538.8667">dataQuality: number</text><line style="stroke: #A80036; stroke-width: 1.5;" x1="898.5" x2="1073.5" y1="545.4609" y2="545.4609"/><!--MD5=[869363e3486fae0bc6cabca84db40d49]
class DatastreamDeleted--><rect fill="#FEFECE" filter="url(#f8kqc3zaj6dic)" height="60.8047" id="DatastreamDeleted" style="stroke: #A80036; stroke-width: 1.5;" width="149" x="1109.5" y="415.5"/><ellipse cx="1124.5" cy="431.5" fill="#ADD1B2" rx="11" ry="11" style="stroke: #A80036; stroke-width: 1.0;"/><path d="M1126.8438,427.1719 C1125.9063,426.7344 1125.3125,426.5938 1124.4375,426.5938 C1121.8125,426.5938 1119.8125,428.6719 1119.8125,431.3906 L1119.8125,432.5156 C1119.8125,435.0938 1121.9219,436.9844 1124.8125,436.9844 C1126.0313,436.9844 1127.1875,436.6875 1127.9375,436.1406 C1128.5156,435.7344 1128.8438,435.2813 1128.8438,434.8906 C1128.8438,434.4375 1128.4531,434.0469 1127.9844,434.0469 C1127.7656,434.0469 1127.5625,434.125 1127.375,434.3125 C1126.9219,434.7969 1126.9219,434.7969 1126.7344,434.8906 C1126.3125,435.1563 1125.625,435.2813 1124.8594,435.2813 C1122.8125,435.2813 1121.5156,434.1875 1121.5156,432.4844 L1121.5156,431.3906 C1121.5156,429.6094 1122.7656,428.2969 1124.5,428.2969 C1125.0781,428.2969 1125.6875,428.4531 1126.1563,428.7031 C1126.6406,428.9844 1126.8125,429.2031 1126.9063,429.6094 C1126.9688,430.0156 1127,430.1406 1127.1406,430.2656 C1127.2813,430.4063 1127.5156,430.5156 1127.7344,430.5156 C1128,430.5156 1128.2656,430.375 1128.4375,430.1563 C1128.5469,430 1128.5781,429.8125 1128.5781,429.3906 L1128.5781,427.9688 C1128.5781,427.5313 1128.5625,427.4063 1128.4688,427.25 C1128.3125,426.9844 1128.0313,426.8438 1127.7344,426.8438 C1127.4375,426.8438 1127.2344,426.9375 1127.0156,427.25 L1126.8438,427.1719 Z "/><text fill="#000000" font-family="sans-serif" font-size="12" lengthAdjust="spacingAndGlyphs" textLength="117" x="1138.5" y="435.6543">DatastreamDeleted</text><line style="stroke: #A80036; stroke-width: 1.5;" x1="1110.5" x2="1257.5" y1="447.5" y2="447.5"/><ellipse cx="1120.5" cy="458.5" fill="none" rx="3" ry="3" style="stroke: #038048; stroke-width: 1.0;"/><text fill="#000000" font-family="sans-serif" font-size="11" lengthAdjust="spacingAndGlyphs" textLength="115" x="1129.5" y="461.7104">datastreamId: string</text><line style="stroke: #A80036; stroke-width: 1.5;" x1="1110.5" x2="1257.5" y1="468.3047" y2="468.3047"/><!--MD5=[c07e3d3b8e99694cecdd0d9f468fcef6]
class SensorDeactivated--><rect fill="#FEFECE" filter="url(#f8kqc3zaj6dic)" height="48" id="SensorDeactivated" style="stroke: #A80036; stroke-width: 1.5;" width="147" x="1293.5" y="422"/><ellipse cx="1308.5" cy="438" fill="#ADD1B2" rx="11" ry="11" style="stroke: #A80036; stroke-width: 1.0;"/><path d="M1310.8438,433.6719 C1309.9063,433.2344 1309.3125,433.0938 1308.4375,433.0938 C1305.8125,433.0938 1303.8125,435.1719 1303.8125,437.8906 L1303.8125,439.0156 C1303.8125,441.5938 1305.9219,443.4844 1308.8125,443.4844 C1310.0313,443.4844 1311.1875,443.1875 1311.9375,442.6406 C1312.5156,442.2344 1312.8438,441.7813 1312.8438,441.3906 C1312.8438,440.9375 1312.4531,440.5469 1311.9844,440.5469 C1311.7656,440.5469 1311.5625,440.625 1311.375,440.8125 C1310.9219,441.2969 1310.9219,441.2969 1310.7344,441.3906 C1310.3125,441.6563 1309.625,441.7813 1308.8594,441.7813 C1306.8125,441.7813 1305.5156,440.6875 1305.5156,438.9844 L1305.5156,437.8906 C1305.5156,436.1094 1306.7656,434.7969 1308.5,434.7969 C1309.0781,434.7969 1309.6875,434.9531 1310.1563,435.2031 C1310.6406,435.4844 1310.8125,435.7031 1310.9063,436.1094 C1310.9688,436.5156 1311,436.6406 1311.1406,436.7656 C1311.2813,436.9063 1311.5156,437.0156 1311.7344,437.0156 C1312,437.0156 1312.2656,436.875 1312.4375,436.6563 C1312.5469,436.5 1312.5781,436.3125 1312.5781,435.8906 L1312.5781,434.4688 C1312.5781,434.0313 1312.5625,433.9063 1312.4688,433.75 C1312.3125,433.4844 1312.0313,433.3438 1311.7344,433.3438 C1311.4375,433.3438 1311.2344,433.4375 1311.0156,433.75 L1310.8438,433.6719 Z "/><text fill="#000000" font-family="sans-serif" font-size="12" lengthAdjust="spacingAndGlyphs" textLength="115" x="1322.5" y="442.1543">SensorDeactivated</text><line style="stroke: #A80036; stroke-width: 1.5;" x1="1294.5" x2="1439.5" y1="454" y2="454"/><line style="stroke: #A80036; stroke-width: 1.5;" x1="1294.5" x2="1439.5" y1="462" y2="462"/><!--MD5=[de9ddbc35db767bbb90319827ceadbb2]
class SensorDeleted--><rect fill="#FEFECE" filter="url(#f8kqc3zaj6dic)" height="48" id="SensorDeleted" style="stroke: #A80036; stroke-width: 1.5;" width="123" x="1475.5" y="422"/><ellipse cx="1490.5" cy="438" fill="#ADD1B2" rx="11" ry="11" style="stroke: #A80036; stroke-width: 1.0;"/><path d="M1492.8438,433.6719 C1491.9063,433.2344 1491.3125,433.0938 1490.4375,433.0938 C1487.8125,433.0938 1485.8125,435.1719 1485.8125,437.8906 L1485.8125,439.0156 C1485.8125,441.5938 1487.9219,443.4844 1490.8125,443.4844 C1492.0313,443.4844 1493.1875,443.1875 1493.9375,442.6406 C1494.5156,442.2344 1494.8438,441.7813 1494.8438,441.3906 C1494.8438,440.9375 1494.4531,440.5469 1493.9844,440.5469 C1493.7656,440.5469 1493.5625,440.625 1493.375,440.8125 C1492.9219,441.2969 1492.9219,441.2969 1492.7344,441.3906 C1492.3125,441.6563 1491.625,441.7813 1490.8594,441.7813 C1488.8125,441.7813 1487.5156,440.6875 1487.5156,438.9844 L1487.5156,437.8906 C1487.5156,436.1094 1488.7656,434.7969 1490.5,434.7969 C1491.0781,434.7969 1491.6875,434.9531 1492.1563,435.2031 C1492.6406,435.4844 1492.8125,435.7031 1492.9063,436.1094 C1492.9688,436.5156 1493,436.6406 1493.1406,436.7656 C1493.2813,436.9063 1493.5156,437.0156 1493.7344,437.0156 C1494,437.0156 1494.2656,436.875 1494.4375,436.6563 C1494.5469,436.5 1494.5781,436.3125 1494.5781,435.8906 L1494.5781,434.4688 C1494.5781,434.0313 1494.5625,433.9063 1494.4688,433.75 C1494.3125,433.4844 1494.0313,433.3438 1493.7344,433.3438 C1493.4375,433.3438 1493.2344,433.4375 1493.0156,433.75 L1492.8438,433.6719 Z "/><text fill="#000000" font-family="sans-serif" font-size="12" lengthAdjust="spacingAndGlyphs" textLength="91" x="1504.5" y="442.1543">SensorDeleted</text><line style="stroke: #A80036; stroke-width: 1.5;" x1="1476.5" x2="1597.5" y1="454" y2="454"/><line style="stroke: #A80036; stroke-width: 1.5;" x1="1476.5" x2="1597.5" y1="462" y2="462"/><!--MD5=[c91977c30efde37b86304c015ecea261]
class SensorRelocated--><rect fill="#FEFECE" filter="url(#f8kqc3zaj6dic)" height="112.0234" id="SensorRelocated" style="stroke: #A80036; stroke-width: 1.5;" width="139" x="1633.5" y="390"/><ellipse cx="1650.3" cy="406" fill="#ADD1B2" rx="11" ry="11" style="stroke: #A80036; stroke-width: 1.0;"/><path d="M1652.6438,401.6719 C1651.7063,401.2344 1651.1125,401.0938 1650.2375,401.0938 C1647.6125,401.0938 1645.6125,403.1719 1645.6125,405.8906 L1645.6125,407.0156 C1645.6125,409.5938 1647.7219,411.4844 1650.6125,411.4844 C1651.8313,411.4844 1652.9875,411.1875 1653.7375,410.6406 C1654.3156,410.2344 1654.6438,409.7813 1654.6438,409.3906 C1654.6438,408.9375 1654.2531,408.5469 1653.7844,408.5469 C1653.5656,408.5469 1653.3625,408.625 1653.175,408.8125 C1652.7219,409.2969 1652.7219,409.2969 1652.5344,409.3906 C1652.1125,409.6563 1651.425,409.7813 1650.6594,409.7813 C1648.6125,409.7813 1647.3156,408.6875 1647.3156,406.9844 L1647.3156,405.8906 C1647.3156,404.1094 1648.5656,402.7969 1650.3,402.7969 C1650.8781,402.7969 1651.4875,402.9531 1651.9563,403.2031 C1652.4406,403.4844 1652.6125,403.7031 1652.7063,404.1094 C1652.7688,404.5156 1652.8,404.6406 1652.9406,404.7656 C1653.0813,404.9063 1653.3156,405.0156 1653.5344,405.0156 C1653.8,405.0156 1654.0656,404.875 1654.2375,404.6563 C1654.3469,404.5 1654.3781,404.3125 1654.3781,403.8906 L1654.3781,402.4688 C1654.3781,402.0313 1654.3625,401.9063 1654.2688,401.75 C1654.1125,401.4844 1653.8313,401.3438 1653.5344,401.3438 C1653.2375,401.3438 1653.0344,401.4375 1652.8156,401.75 L1652.6438,401.6719 Z "/><text fill="#000000" font-family="sans-serif" font-size="12" lengthAdjust="spacingAndGlyphs" textLength="103" x="1664.7" y="410.1543">SensorRelocated</text><line style="stroke: #A80036; stroke-width: 1.5;" x1="1634.5" x2="1771.5" y1="422" y2="422"/><ellipse cx="1644.5" cy="433" fill="none" rx="3" ry="3" style="stroke: #038048; stroke-width: 1.0;"/><text fill="#000000" font-family="sans-serif" font-size="11" lengthAdjust="spacingAndGlyphs" textLength="58" x="1653.5" y="436.2104">x: number</text><ellipse cx="1644.5" cy="445.8047" fill="none" rx="3" ry="3" style="stroke: #038048; stroke-width: 1.0;"/><text fill="#000000" font-family="sans-serif" font-size="11" lengthAdjust="spacingAndGlyphs" textLength="58" x="1653.5" y="449.0151">y: number</text><ellipse cx="1644.5" cy="458.6094" fill="none" rx="3" ry="3" style="stroke: #038048; stroke-width: 1.0;"/><text fill="#000000" font-family="sans-serif" font-size="11" lengthAdjust="spacingAndGlyphs" textLength="58" x="1653.5" y="461.8198">z: number</text><ellipse cx="1644.5" cy="471.4141" fill="none" rx="3" ry="3" style="stroke: #038048; stroke-width: 1.0;"/><text fill="#000000" font-family="sans-serif" font-size="11" lengthAdjust="spacingAndGlyphs" textLength="109" x="1653.5" y="474.6245">epsgCode: number</text><ellipse cx="1644.5" cy="484.2188" fill="none" rx="3" ry="3" style="stroke: #038048; stroke-width: 1.0;"/><text fill="#000000" font-family="sans-serif" font-size="11" lengthAdjust="spacingAndGlyphs" textLength="113" x="1653.5" y="487.4292">baseObjectId: string</text><line style="stroke: #A80036; stroke-width: 1.5;" x1="1634.5" x2="1771.5" y1="494.0234" y2="494.0234"/><!--MD5=[54c5eed8ec832e957e92ec6c673c1f60]
class SensorOwnershipShared--><rect fill="#FEFECE" filter="url(#f8kqc3zaj6dic)" height="60.8047" id="SensorOwnershipShared" style="stroke: #A80036; stroke-width: 1.5;" width="183" x="1807.5" y="415.5"/><ellipse cx="1822.5" cy="431.5" fill="#ADD1B2" rx="11" ry="11" style="stroke: #A80036; stroke-width: 1.0;"/><path d="M1824.8438,427.1719 C1823.9063,426.7344 1823.3125,426.5938 1822.4375,426.5938 C1819.8125,426.5938 1817.8125,428.6719 1817.8125,431.3906 L1817.8125,432.5156 C1817.8125,435.0938 1819.9219,436.9844 1822.8125,436.9844 C1824.0313,436.9844 1825.1875,436.6875 1825.9375,436.1406 C1826.5156,435.7344 1826.8438,435.2813 1826.8438,434.8906 C1826.8438,434.4375 1826.4531,434.0469 1825.9844,434.0469 C1825.7656,434.0469 1825.5625,434.125 1825.375,434.3125 C1824.9219,434.7969 1824.9219,434.7969 1824.7344,434.8906 C1824.3125,435.1563 1823.625,435.2813 1822.8594,435.2813 C1820.8125,435.2813 1819.5156,434.1875 1819.5156,432.4844 L1819.5156,431.3906 C1819.5156,429.6094 1820.7656,428.2969 1822.5,428.2969 C1823.0781,428.2969 1823.6875,428.4531 1824.1563,428.7031 C1824.6406,428.9844 1824.8125,429.2031 1824.9063,429.6094 C1824.9688,430.0156 1825,430.1406 1825.1406,430.2656 C1825.2813,430.4063 1825.5156,430.5156 1825.7344,430.5156 C1826,430.5156 1826.2656,430.375 1826.4375,430.1563 C1826.5469,430 1826.5781,429.8125 1826.5781,429.3906 L1826.5781,427.9688 C1826.5781,427.5313 1826.5625,427.4063 1826.4688,427.25 C1826.3125,426.9844 1826.0313,426.8438 1825.7344,426.8438 C1825.4375,426.8438 1825.2344,426.9375 1825.0156,427.25 L1824.8438,427.1719 Z "/><text fill="#000000" font-family="sans-serif" font-size="12" lengthAdjust="spacingAndGlyphs" textLength="151" x="1836.5" y="435.6543">SensorOwnershipShared</text><line style="stroke: #A80036; stroke-width: 1.5;" x1="1808.5" x2="1989.5" y1="447.5" y2="447.5"/><ellipse cx="1818.5" cy="458.5" fill="none" rx="3" ry="3" style="stroke: #038048; stroke-width: 1.0;"/><text fill="#000000" font-family="sans-serif" font-size="11" lengthAdjust="spacingAndGlyphs" textLength="97" x="1827.5" y="461.7104">ownerIds: string[]</text><line style="stroke: #A80036; stroke-width: 1.5;" x1="1808.5" x2="1989.5" y1="468.3047" y2="468.3047"/><!--MD5=[0fef996e22f29155d896908d34f75efb]
class SensorOwnershipTransferred--><rect fill="#FEFECE" filter="url(#f8kqc3zaj6dic)" height="73.6094" id="SensorOwnershipTransferred" style="stroke: #A80036; stroke-width: 1.5;" width="211" x="2025.5" y="409"/><ellipse cx="2040.5" cy="425" fill="#ADD1B2" rx="11" ry="11" style="stroke: #A80036; stroke-width: 1.0;"/><path d="M2042.8438,420.6719 C2041.9063,420.2344 2041.3125,420.0938 2040.4375,420.0938 C2037.8125,420.0938 2035.8125,422.1719 2035.8125,424.8906 L2035.8125,426.0156 C2035.8125,428.5938 2037.9219,430.4844 2040.8125,430.4844 C2042.0313,430.4844 2043.1875,430.1875 2043.9375,429.6406 C2044.5156,429.2344 2044.8438,428.7813 2044.8438,428.3906 C2044.8438,427.9375 2044.4531,427.5469 2043.9844,427.5469 C2043.7656,427.5469 2043.5625,427.625 2043.375,427.8125 C2042.9219,428.2969 2042.9219,428.2969 2042.7344,428.3906 C2042.3125,428.6563 2041.625,428.7813 2040.8594,428.7813 C2038.8125,428.7813 2037.5156,427.6875 2037.5156,425.9844 L2037.5156,424.8906 C2037.5156,423.1094 2038.7656,421.7969 2040.5,421.7969 C2041.0781,421.7969 2041.6875,421.9531 2042.1563,422.2031 C2042.6406,422.4844 2042.8125,422.7031 2042.9063,423.1094 C2042.9688,423.5156 2043,423.6406 2043.1406,423.7656 C2043.2813,423.9063 2043.5156,424.0156 2043.7344,424.0156 C2044,424.0156 2044.2656,423.875 2044.4375,423.6563 C2044.5469,423.5 2044.5781,423.3125 2044.5781,422.8906 L2044.5781,421.4688 C2044.5781,421.0313 2044.5625,420.9063 2044.4688,420.75 C2044.3125,420.4844 2044.0313,420.3438 2043.7344,420.3438 C2043.4375,420.3438 2043.2344,420.4375 2043.0156,420.75 L2042.8438,420.6719 Z "/><text fill="#000000" font-family="sans-serif" font-size="12" lengthAdjust="spacingAndGlyphs" textLength="179" x="2054.5" y="429.1543">SensorOwnershipTransferred</text><line style="stroke: #A80036; stroke-width: 1.5;" x1="2026.5" x2="2235.5" y1="441" y2="441"/><ellipse cx="2036.5" cy="452" fill="none" rx="3" ry="3" style="stroke: #038048; stroke-width: 1.0;"/><text fill="#000000" font-family="sans-serif" font-size="11" lengthAdjust="spacingAndGlyphs" textLength="102" x="2045.5" y="455.2104">oldOwnerId: string</text><ellipse cx="2036.5" cy="464.8047" fill="none" rx="3" ry="3" style="stroke: #038048; stroke-width: 1.0;"/><text fill="#000000" font-family="sans-serif" font-size="11" lengthAdjust="spacingAndGlyphs" textLength="109" x="2045.5" y="468.0151">newOwnerId: string</text><line style="stroke: #A80036; stroke-width: 1.5;" x1="2026.5" x2="2235.5" y1="474.6094" y2="474.6094"/><!--MD5=[ddbf0914b664dd97922e718dfb6629ba]
class SensorUpdated--><rect fill="#FEFECE" filter="url(#f8kqc3zaj6dic)" height="163.2422" id="SensorUpdated" style="stroke: #A80036; stroke-width: 1.5;" width="164" x="2272" y="364.5"/><ellipse cx="2303.65" cy="380.5" fill="#ADD1B2" rx="11" ry="11" style="stroke: #A80036; stroke-width: 1.0;"/><path d="M2305.9938,376.1719 C2305.0563,375.7344 2304.4625,375.5938 2303.5875,375.5938 C2300.9625,375.5938 2298.9625,377.6719 2298.9625,380.3906 L2298.9625,381.5156 C2298.9625,384.0938 2301.0719,385.9844 2303.9625,385.9844 C2305.1813,385.9844 2306.3375,385.6875 2307.0875,385.1406 C2307.6656,384.7344 2307.9938,384.2813 2307.9938,383.8906 C2307.9938,383.4375 2307.6031,383.0469 2307.1344,383.0469 C2306.9156,383.0469 2306.7125,383.125 2306.525,383.3125 C2306.0719,383.7969 2306.0719,383.7969 2305.8844,383.8906 C2305.4625,384.1563 2304.775,384.2813 2304.0094,384.2813 C2301.9625,384.2813 2300.6656,383.1875 2300.6656,381.4844 L2300.6656,380.3906 C2300.6656,378.6094 2301.9156,377.2969 2303.65,377.2969 C2304.2281,377.2969 2304.8375,377.4531 2305.3063,377.7031 C2305.7906,377.9844 2305.9625,378.2031 2306.0563,378.6094 C2306.1188,379.0156 2306.15,379.1406 2306.2906,379.2656 C2306.4313,379.4063 2306.6656,379.5156 2306.8844,379.5156 C2307.15,379.5156 2307.4156,379.375 2307.5875,379.1563 C2307.6969,379 2307.7281,378.8125 2307.7281,378.3906 L2307.7281,376.9688 C2307.7281,376.5313 2307.7125,376.4063 2307.6188,376.25 C2307.4625,375.9844 2307.1813,375.8438 2306.8844,375.8438 C2306.5875,375.8438 2306.3844,375.9375 2306.1656,376.25 L2305.9938,376.1719 Z "/><text fill="#000000" font-family="sans-serif" font-size="12" lengthAdjust="spacingAndGlyphs" textLength="95" x="2321.35" y="384.6543">SensorUpdated</text><line style="stroke: #A80036; stroke-width: 1.5;" x1="2273" x2="2435" y1="396.5" y2="396.5"/><ellipse cx="2283" cy="407.5" fill="none" rx="3" ry="3" style="stroke: #038048; stroke-width: 1.0;"/><text fill="#000000" font-family="sans-serif" font-size="11" lengthAdjust="spacingAndGlyphs" textLength="71" x="2292" y="410.7104">name: string</text><ellipse cx="2283" cy="420.3047" fill="none" rx="3" ry="3" style="stroke: #038048; stroke-width: 1.0;"/><text fill="#000000" font-family="sans-serif" font-size="11" lengthAdjust="spacingAndGlyphs" textLength="59" x="2292" y="423.5151">aim: string</text><ellipse cx="2283" cy="433.1094" fill="none" rx="3" ry="3" style="stroke: #038048; stroke-width: 1.0;"/><text fill="#000000" font-family="sans-serif" font-size="11" lengthAdjust="spacingAndGlyphs" textLength="100" x="2292" y="436.3198">description: string</text><ellipse cx="2283" cy="445.9141" fill="none" rx="3" ry="3" style="stroke: #038048; stroke-width: 1.0;"/><text fill="#000000" font-family="sans-serif" font-size="11" lengthAdjust="spacingAndGlyphs" textLength="114" x="2292" y="449.1245">manufacturer: string</text><ellipse cx="2283" cy="458.7188" fill="none" rx="3" ry="3" style="stroke: #038048; stroke-width: 1.0;"/><text fill="#000000" font-family="sans-serif" font-size="11" lengthAdjust="spacingAndGlyphs" textLength="136" x="2292" y="461.9292">observationArea: object</text><ellipse cx="2283" cy="471.5234" fill="none" rx="3" ry="3" style="stroke: #038048; stroke-width: 1.0;"/><text fill="#000000" font-family="sans-serif" font-size="11" lengthAdjust="spacingAndGlyphs" textLength="138" x="2292" y="474.7339">documentationUrl: string</text><ellipse cx="2283" cy="484.3281" fill="none" rx="3" ry="3" style="stroke: #038048; stroke-width: 1.0;"/><text fill="#000000" font-family="sans-serif" font-size="11" lengthAdjust="spacingAndGlyphs" textLength="84" x="2292" y="487.5386">theme: string[]</text><ellipse cx="2283" cy="497.1328" fill="none" rx="3" ry="3" style="stroke: #038048; stroke-width: 1.0;"/><text fill="#000000" font-family="sans-serif" font-size="11" lengthAdjust="spacingAndGlyphs" textLength="98" x="2292" y="500.3433">typeName: string</text><ellipse cx="2283" cy="509.9375" fill="none" rx="3" ry="3" style="stroke: #038048; stroke-width: 1.0;"/><text fill="#000000" font-family="sans-serif" font-size="11" lengthAdjust="spacingAndGlyphs" textLength="108" x="2292" y="513.1479">typeDetails: object</text><line style="stroke: #A80036; stroke-width: 1.5;" x1="2273" x2="2435" y1="519.7422" y2="519.7422"/><!--MD5=[ac2203a7bf6e59b5d5b6d754f0b04b03]
class SensorEventType--><rect fill="#FEFECE" filter="url(#f8kqc3zaj6dic)" height="86.4141" id="SensorEventType" style="stroke: #A80036; stroke-width: 1.5;" width="245" x="780.5" y="8"/><ellipse cx="845.75" cy="24" fill="#ADD1B2" rx="11" ry="11" style="stroke: #A80036; stroke-width: 1.0;"/><path d="M848.0938,19.6719 C847.1563,19.2344 846.5625,19.0938 845.6875,19.0938 C843.0625,19.0938 841.0625,21.1719 841.0625,23.8906 L841.0625,25.0156 C841.0625,27.5938 843.1719,29.4844 846.0625,29.4844 C847.2813,29.4844 848.4375,29.1875 849.1875,28.6406 C849.7656,28.2344 850.0938,27.7813 850.0938,27.3906 C850.0938,26.9375 849.7031,26.5469 849.2344,26.5469 C849.0156,26.5469 848.8125,26.625 848.625,26.8125 C848.1719,27.2969 848.1719,27.2969 847.9844,27.3906 C847.5625,27.6563 846.875,27.7813 846.1094,27.7813 C844.0625,27.7813 842.7656,26.6875 842.7656,24.9844 L842.7656,23.8906 C842.7656,22.1094 844.0156,20.7969 845.75,20.7969 C846.3281,20.7969 846.9375,20.9531 847.4063,21.2031 C847.8906,21.4844 848.0625,21.7031 848.1563,22.1094 C848.2188,22.5156 848.25,22.6406 848.3906,22.7656 C848.5313,22.9063 848.7656,23.0156 848.9844,23.0156 C849.25,23.0156 849.5156,22.875 849.6875,22.6563 C849.7969,22.5 849.8281,22.3125 849.8281,21.8906 L849.8281,20.4688 C849.8281,20.0313 849.8125,19.9063 849.7188,19.75 C849.5625,19.4844 849.2813,19.3438 848.9844,19.3438 C848.6875,19.3438 848.4844,19.4375 848.2656,19.75 L848.0938,19.6719 Z "/><text fill="#000000" font-family="sans-serif" font-size="12" lengthAdjust="spacingAndGlyphs" textLength="106" x="866.25" y="28.1543">SensorEventType</text><line style="stroke: #A80036; stroke-width: 1.5;" x1="781.5" x2="1024.5" y1="40" y2="40"/><rect fill="none" height="6" style="stroke: #C82930; stroke-width: 1.0;" width="6" x="788.5" y="48"/><text fill="#000000" font-family="sans-serif" font-size="11" lengthAdjust="spacingAndGlyphs" textLength="219" x="800.5" y="54.2104">supportedTypes: { [key: string]: any; }</text><line style="stroke: #A80036; stroke-width: 1.5;" x1="781.5" x2="1024.5" y1="60.8047" y2="60.8047"/><ellipse cx="791.5" cy="71.8047" fill="#84BE84" rx="3" ry="3" style="stroke: #038048; stroke-width: 1.0;"/><text fill="#000000" font-family="sans-serif" font-size="11" lengthAdjust="spacingAndGlyphs" textLength="219" x="800.5" y="75.0151">getType(eventTypeName: string): any</text><rect fill="#F24D5C" height="6" style="stroke: #C82930; stroke-width: 1.0;" width="6" x="788.5" y="81.6094"/><text fill="#000000" font-family="sans-serif" font-size="11" lengthAdjust="spacingAndGlyphs" textLength="122" x="800.5" y="87.8198">add(event: any): void</text><!--MD5=[8a11e3877039dac2f8aff2685f8e97cd]
reverse link IEvent to EventMessage--><path d="M174.862,95.228 C175.226,113.511 175.652,134.895 176.028,153.738 " fill="none" id="IEvent&lt;-EventMessage" style="stroke: #A80036; stroke-width: 1.0; stroke-dasharray: 7.0,7.0;"/><polygon fill="none" points="167.862,95.321,174.462,75.186,181.859,95.042,167.862,95.321" style="stroke: #A80036; stroke-width: 1.0;"/><!--MD5=[5e01425f33c4ef4f75b5b4375b950447]
reverse link Event to OwnerEvent--><path d="M353.343,114.327 C352.875,131.954 352.381,150.556 351.967,166.107 " fill="none" id="Event&lt;-OwnerEvent" style="stroke: #A80036; stroke-width: 1.0;"/><polygon fill="none" points="346.346,114.13,353.875,94.323,360.341,114.502,346.346,114.13" style="stroke: #A80036; stroke-width: 1.0;"/><!--MD5=[2e785d232554c3033280175320d93148]
reverse link OwnerEvent to OwnerRegistered--><path d="M267.987,250.696 C229.569,272.951 188.946,298.002 173,313 C153.263,331.564 135.274,355.011 120.543,376.975 " fill="none" id="OwnerEvent&lt;-OwnerRegistered" style="stroke: #A80036; stroke-width: 1.0;"/><polygon fill="none" points="264.555,244.595,285.386,240.714,271.522,256.738,264.555,244.595" style="stroke: #A80036; stroke-width: 1.0;"/><!--MD5=[07358b0006920f99f56f18fe7b88edb2]
reverse link OwnerEvent to OwnerUpdated--><path d="M331.587,259.427 C318.518,296.405 301.267,345.214 287.738,383.495 " fill="none" id="OwnerEvent&lt;-OwnerUpdated" style="stroke: #A80036; stroke-width: 1.0;"/><polygon fill="none" points="325.01,257.03,338.275,240.505,338.21,261.695,325.01,257.03" style="stroke: #A80036; stroke-width: 1.0;"/><!--MD5=[42b4ec5c38bc40462a588795c1e15917]
reverse link OwnerEvent to OwnerDeleted--><path d="M370.466,259.577 C388.577,310.82 414.684,384.688 427.809,421.826 " fill="none" id="OwnerEvent&lt;-OwnerDeleted" style="stroke: #A80036; stroke-width: 1.0;"/><polygon fill="none" points="363.79,261.695,363.725,240.505,376.99,257.03,363.79,261.695" style="stroke: #A80036; stroke-width: 1.0;"/><!--MD5=[0fc190365cf047260ac45615c922e08b]
reverse link Event to SensorEvent--><path d="M484.854,93.996 C797.299,161.974 1151.66,189.425 1298.3,198.639 " fill="none" id="Event&lt;-SensorEvent" style="stroke: #A80036; stroke-width: 1.0;"/><polygon fill="none" points="483.305,100.823,465.286,89.673,486.326,87.153,483.305,100.823" style="stroke: #A80036; stroke-width: 1.0;"/><!--MD5=[3d874978032f994ac16536248fb6fdf8]
reverse link SensorEvent to SensorActivated--><path d="M1278.01,209.473 C1115.1,220.033 776.808,249.15 680,313 C640.34,339.157 616.05,391.487 604.695,421.811 " fill="none" id="SensorEvent&lt;-SensorActivated" style="stroke: #A80036; stroke-width: 1.0;"/><polygon fill="none" points="1277.98,202.461,1298.38,208.19,1278.86,216.433,1277.98,202.461" style="stroke: #A80036; stroke-width: 1.0;"/><!--MD5=[28973f6319fa1237885d9bc3a8fe792d]
reverse link SensorEvent to SensorRegistered--><path d="M1278.39,206.213 C1175.09,212.063 1002.87,234.099 880,313 C873.831,316.961 867.899,321.443 862.218,326.303 " fill="none" id="SensorEvent&lt;-SensorRegistered" style="stroke: #A80036; stroke-width: 1.0;"/><polygon fill="none" points="1278.09,199.22,1298.41,205.234,1278.77,213.203,1278.09,199.22" style="stroke: #A80036; stroke-width: 1.0;"/><!--MD5=[50c80d1562fa11517733d0164d93b610]
reverse link SensorEvent to DatastreamAdded--><path d="M1278.81,226.559 C1221.77,243.759 1148,271.741 1092,313 C1081.71,320.584 1071.85,329.402 1062.58,338.815 " fill="none" id="SensorEvent&lt;-DatastreamAdded" style="stroke: #A80036; stroke-width: 1.0;"/><polygon fill="none" points="1277.08,219.775,1298.23,220.921,1280.98,233.22,1277.08,219.775" style="stroke: #A80036; stroke-width: 1.0;"/><!--MD5=[a71fbdc0d7aaa0191ac6825a5e7b953f]
reverse link SensorEvent to DatastreamDeleted--><path d="M1321.82,256.449 C1306.89,274.12 1290.42,294.167 1276,313 C1249.77,347.271 1221.69,388.254 1203.55,415.365 " fill="none" id="SensorEvent&lt;-DatastreamDeleted" style="stroke: #A80036; stroke-width: 1.0;"/><polygon fill="none" points="1316.7,251.67,1335,240.992,1327.35,260.753,1316.7,251.67" style="stroke: #A80036; stroke-width: 1.0;"/><!--MD5=[da2928a8697465a19d67c0fcedb94b7e]
reverse link SensorEvent to SensorDeactivated--><path d="M1367,260.6 C1367,311.799 1367,384.934 1367,421.826 " fill="none" id="SensorEvent&lt;-SensorDeactivated" style="stroke: #A80036; stroke-width: 1.0;"/><polygon fill="none" points="1360,260.505,1367,240.505,1374,260.505,1360,260.505" style="stroke: #A80036; stroke-width: 1.0;"/><!--MD5=[4e68082bb32432d11f4a6486566e2611]
reverse link SensorEvent to SensorDeleted--><path d="M1413.31,256.3 C1428.2,273.831 1444.36,293.832 1458,313 C1484.02,349.554 1509.91,394.978 1524.64,421.888 " fill="none" id="SensorEvent&lt;-SensorDeleted" style="stroke: #A80036; stroke-width: 1.0;"/><polygon fill="none" points="1407.86,260.706,1400.1,240.989,1418.46,251.561,1407.86,260.706" style="stroke: #A80036; stroke-width: 1.0;"/><!--MD5=[86fd4b242bc188a0e2c58525734845d8]
reverse link SensorEvent to SensorRelocated--><path d="M1454.94,228.949 C1505.99,246.33 1569.23,273.648 1616,313 C1640.89,333.94 1661.37,363.778 1676.2,389.789 " fill="none" id="SensorEvent&lt;-SensorRelocated" style="stroke: #A80036; stroke-width: 1.0;"/><polygon fill="none" points="1452.52,235.522,1435.68,222.658,1456.87,222.214,1452.52,235.522" style="stroke: #A80036; stroke-width: 1.0;"/><!--MD5=[8f2cc70de2cffd3b0f2ddead6d59732f]
reverse link SensorEvent to SensorOwnershipShared--><path d="M1455.63,211.164 C1545.88,221.456 1686.84,247.483 1790,313 C1830.77,338.891 1863.7,385.099 1882.32,415.399 " fill="none" id="SensorEvent&lt;-SensorOwnershipShared" style="stroke: #A80036; stroke-width: 1.0;"/><polygon fill="none" points="1454.65,218.1,1435.5,209.034,1456.13,204.177,1454.65,218.1" style="stroke: #A80036; stroke-width: 1.0;"/><!--MD5=[a0c43534166c25ecbd563fb839ca54c5]
reverse link SensorEvent to SensorOwnershipTransferred--><path d="M1455.72,212.439 C1608.5,227.27 1913.95,262.33 2008,313 C2050.05,335.657 2085.65,378.162 2107.56,408.828 " fill="none" id="SensorEvent&lt;-SensorOwnershipTransferred" style="stroke: #A80036; stroke-width: 1.0;"/><polygon fill="none" points="1454.9,219.393,1435.65,210.523,1456.23,205.456,1454.9,219.393" style="stroke: #A80036; stroke-width: 1.0;"/><!--MD5=[c5d1e39cb59cf5e97c4b2c026d47cdcb]
reverse link SensorEvent to SensorUpdated--><path d="M1455.91,206.68 C1652.92,212.886 2119.4,235.56 2254,313 C2275.56,325.402 2293.96,344.493 2308.89,364.338 " fill="none" id="SensorEvent&lt;-SensorUpdated" style="stroke: #A80036; stroke-width: 1.0;"/><polygon fill="none" points="1455.54,213.672,1435.76,206.074,1455.96,199.679,1455.54,213.672" style="stroke: #A80036; stroke-width: 1.0;"/><!--MD5=[834afa563f394a49f493b17624e4371b]
reverse link Event to EventMessage--><path d="M294.954,102.769 C275.444,119.265 253.851,137.522 234.529,153.859 " fill="none" id="Event&lt;-EventMessage" style="stroke: #A80036; stroke-width: 1.0;"/><polygon fill="#A80036" points="304.943,94.323,297.7786,95.1428,295.7798,102.0713,302.9442,101.2515,304.943,94.323" style="stroke: #A80036; stroke-width: 1.0;"/><!--MD5=[ee9ca3eca3cbf716ea6f7645191b52c4]
@startuml
class EventMessage implements IEvent {
    +streamId: string
    +eventType: string
    +data: object
    +metadata: object
}
abstract class Event {
    +aggregateId: string
    +{abstract} streamRoot(): string
    +toEventMessage(): EventMessage
}
abstract class OwnerEvent extends Event {
    +ownerId: string
    +streamRoot(): string
}
class OwnerRegistered extends OwnerEvent {
    +nodeId: string
    +ssoId: string
    +email: string
    +publicName: string
    +name: string
    +companyName: string
    +website: string
}
class OwnerUpdated extends OwnerEvent {
    +ssoId: string
    +email: string
    +publicName: string
    +name: string
    +companyName: string
    +website: string
}
class OwnerDeleted extends OwnerEvent
class OwnerEventType {
    -supportedTypes: { [key: string]: any; }
    +getType(eventTypeName: string): any
    -add(event: any): void
}
abstract class SensorEvent extends Event {
    +sensorId: string
    +streamRoot(): string
}
class SensorActivated extends SensorEvent
class SensorRegistered extends SensorEvent {
    +nodeId: string
    +ownerIds: string[]
    +name: string
    +x: number
    +y: number
    +z: number
    +epsgCode: number
    +baseObjectId: string
    +aim: string
    +description: string
    +manufacturer: string
    +active: boolean
    +observationArea: object
    +documentationUrl: string
    +theme: string[]
    +typeName: string
    +typeDetails: object
}
class DatastreamAdded extends SensorEvent {
    +datastreamId: string
    +name: string
    +reason: string
    +description: string
    +observedProperty: string
    +unitOfMeasurement: string
    +isPublic: boolean
    +isOpenData: boolean
    +isReusable: boolean
    +documentationUrl: string
    +dataLink: string
    +dataFrequency: number
    +dataQuality: number
}
class DatastreamDeleted extends SensorEvent {
    +datastreamId: string
}
class SensorDeactivated extends SensorEvent
class SensorDeleted extends SensorEvent
class SensorRelocated extends SensorEvent {
    +x: number
    +y: number
    +z: number
    +epsgCode: number
    +baseObjectId: string
}
class SensorOwnershipShared extends SensorEvent {
    +ownerIds: string[]
}
class SensorOwnershipTransferred extends SensorEvent {
    +oldOwnerId: string
    +newOwnerId: string
}
class SensorUpdated extends SensorEvent {
    +name: string
    +aim: string
    +description: string
    +manufacturer: string
    +observationArea: object
    +documentationUrl: string
    +theme: string[]
    +typeName: string
    +typeDetails: object
}
class SensorEventType {
    -supportedTypes: { [key: string]: any; }
    +getType(eventTypeName: string): any
    -add(event: any): void
}
Event *- - EventMessage
@enduml

PlantUML version 1.2020.11(Sat May 30 10:13:43 UTC 2020)
(GPL source distribution)
Java Runtime: Java(TM) SE Runtime Environment
JVM: Java HotSpot(TM) 64-Bit Server VM
Default Encoding: UTF-8
Language: en
Country: US
--></g></svg>