<?xml version="1.0" encoding="UTF-8" standalone="no"?><svg xmlns="http://www.w3.org/2000/svg" xmlns:xlink="http://www.w3.org/1999/xlink" contentScriptType="application/ecmascript" contentStyleType="text/css" height="411px" preserveAspectRatio="none" style="width:2307px;height:411px;" version="1.1" viewBox="0 0 2307 411" width="2307px" zoomAndPan="magnify"><defs><filter height="300%" id="f1v1uvw6m5txli" width="300%" x="-1" y="-1"><feGaussianBlur result="blurOut" stdDeviation="2.0"/><feColorMatrix in="blurOut" result="blurOut2" type="matrix" values="0 0 0 0 0 0 0 0 0 0 0 0 0 0 0 0 0 0 .4 0"/><feOffset dx="4.0" dy="4.0" in="blurOut2" result="blurOut3"/><feBlend in="SourceGraphic" in2="blurOut3" mode="normal"/></filter></defs><g><!--MD5=[ac13618b1a974308c1f12eb6c57723dc]
class Event--><rect fill="#FEFECE" filter="url(#f1v1uvw6m5txli)" height="99.2188" id="Event" style="stroke: #A80036; stroke-width: 1.5;" width="127" x="1029.5" y="193"/><ellipse cx="1071.5" cy="209" fill="#A9DCDF" rx="11" ry="11" style="stroke: #A80036; stroke-width: 1.0;"/><path d="M1073.5781,210.8125 L1073.9688,211.7969 L1073.5781,211.7969 C1073.125,211.7969 1073.0156,211.8125 1072.8594,211.9219 C1072.6094,212.0781 1072.4531,212.3594 1072.4531,212.6563 C1072.4531,212.9219 1072.5938,213.1719 1072.8125,213.3281 C1072.9531,213.4531 1073.1563,213.5 1073.5781,213.5 L1075.9375,213.5 C1076.2969,213.5 1076.5156,213.4688 1076.6563,213.375 C1076.9063,213.2344 1077.0625,212.9375 1077.0625,212.6563 C1077.0625,212.375 1076.9219,212.125 1076.7031,211.9688 C1076.5313,211.8281 1076.375,211.7969 1075.9063,211.7969 L1072.5156,203.5938 L1068.8438,203.5938 C1068.3906,203.5938 1068.2656,203.6094 1068.1094,203.7031 C1067.8594,203.875 1067.7031,204.1563 1067.7031,204.4375 C1067.7031,204.7188 1067.8438,204.9688 1068.0625,205.1406 C1068.2344,205.25 1068.4063,205.2813 1068.8438,205.2813 L1069.9219,205.2813 L1067.2813,211.7969 C1066.8594,211.7969 1066.7031,211.8125 1066.5469,211.9219 C1066.2969,212.0781 1066.1406,212.3594 1066.1406,212.6563 C1066.1406,213.2188 1066.5156,213.5 1067.2656,213.5 L1069.5313,213.5 C1069.8906,213.5 1070.1094,213.4688 1070.2344,213.375 C1070.5,213.2344 1070.6406,212.9375 1070.6406,212.6563 C1070.6406,212.375 1070.5156,212.125 1070.2969,211.9531 C1070.125,211.8281 1069.9844,211.7969 1069.5313,211.7969 L1069.1406,211.7969 L1069.5313,210.8125 L1073.5781,210.8125 Z M1072.875,209.1094 L1070.2031,209.1094 L1071.5469,205.8438 L1072.875,209.1094 Z "/><text fill="#000000" font-family="sans-serif" font-size="12" font-style="italic" lengthAdjust="spacingAndGlyphs" textLength="35" x="1091.5" y="213.1543">Event</text><line style="stroke: #A80036; stroke-width: 1.5;" x1="1030.5" x2="1155.5" y1="225" y2="225"/><ellipse cx="1040.5" cy="236" fill="none" rx="3" ry="3" style="stroke: #038048; stroke-width: 1.0;"/><text fill="#000000" font-family="sans-serif" font-size="11" lengthAdjust="spacingAndGlyphs" textLength="88" x="1049.5" y="239.2104">streamId: string</text><ellipse cx="1040.5" cy="248.8047" fill="none" rx="3" ry="3" style="stroke: #038048; stroke-width: 1.0;"/><text fill="#000000" font-family="sans-serif" font-size="11" lengthAdjust="spacingAndGlyphs" textLength="101" x="1049.5" y="252.0151">eventType: string</text><ellipse cx="1040.5" cy="261.6094" fill="none" rx="3" ry="3" style="stroke: #038048; stroke-width: 1.0;"/><text fill="#000000" font-family="sans-serif" font-size="11" lengthAdjust="spacingAndGlyphs" textLength="67" x="1049.5" y="264.8198">data: object</text><ellipse cx="1040.5" cy="274.4141" fill="none" rx="3" ry="3" style="stroke: #038048; stroke-width: 1.0;"/><text fill="#000000" font-family="sans-serif" font-size="11" lengthAdjust="spacingAndGlyphs" textLength="97" x="1049.5" y="277.6245">metadata: object</text><line style="stroke: #A80036; stroke-width: 1.5;" x1="1030.5" x2="1155.5" y1="284.2188" y2="284.2188"/><!--MD5=[628624eac2e9a9b0eb25c9a99e83214b]
class IEvent--><rect fill="#FEFECE" filter="url(#f1v1uvw6m5txli)" height="48" id="IEvent" style="stroke: #A80036; stroke-width: 1.5;" width="71" x="1057.5" y="46.5"/><ellipse cx="1072.5" cy="62.5" fill="#B4A7E5" rx="11" ry="11" style="stroke: #A80036; stroke-width: 1.0;"/><path d="M1073.4531,59.2813 L1075.1719,59.2813 C1075.5625,59.2813 1075.75,59.25 1075.875,59.1719 C1076.1406,59.0156 1076.2813,58.7344 1076.2813,58.4375 C1076.2813,58.1719 1076.1719,57.9063 1075.9375,57.7344 C1075.7656,57.625 1075.625,57.5938 1075.1719,57.5938 L1070.0313,57.5938 C1069.5938,57.5938 1069.4688,57.6094 1069.3125,57.7031 C1069.0625,57.8594 1068.9063,58.1563 1068.9063,58.4375 C1068.9063,58.7188 1069.0469,58.9688 1069.2656,59.1406 C1069.4219,59.25 1069.6094,59.2813 1070.0313,59.2813 L1071.75,59.2813 L1071.75,65.7969 L1070.0313,65.7969 C1069.5938,65.7969 1069.4688,65.8125 1069.3125,65.9219 C1069.0625,66.0781 1068.9063,66.3594 1068.9063,66.6563 C1068.9063,66.9063 1069.0469,67.1719 1069.2656,67.3281 C1069.4219,67.4531 1069.625,67.5 1070.0313,67.5 L1075.1719,67.5 C1075.9219,67.5 1076.2813,67.2188 1076.2813,66.6563 C1076.2813,66.375 1076.1719,66.125 1075.9375,65.9531 C1075.7656,65.8281 1075.625,65.7969 1075.1719,65.7969 L1073.4531,65.7969 L1073.4531,59.2813 Z "/><text fill="#000000" font-family="sans-serif" font-size="12" font-style="italic" lengthAdjust="spacingAndGlyphs" textLength="39" x="1086.5" y="66.6543">IEvent</text><line style="stroke: #A80036; stroke-width: 1.5;" x1="1058.5" x2="1127.5" y1="78.5" y2="78.5"/><line style="stroke: #A80036; stroke-width: 1.5;" x1="1058.5" x2="1127.5" y1="86.5" y2="86.5"/><!--MD5=[3eae5c6410172be47bd344033b80e140]
class OwnerDeleted--><rect fill="#FEFECE" filter="url(#f1v1uvw6m5txli)" height="48" id="OwnerDeleted" style="stroke: #A80036; stroke-width: 1.5;" width="120" x="6" y="352"/><ellipse cx="21" cy="368" fill="#ADD1B2" rx="11" ry="11" style="stroke: #A80036; stroke-width: 1.0;"/><path d="M23.3438,363.6719 C22.4063,363.2344 21.8125,363.0938 20.9375,363.0938 C18.3125,363.0938 16.3125,365.1719 16.3125,367.8906 L16.3125,369.0156 C16.3125,371.5938 18.4219,373.4844 21.3125,373.4844 C22.5313,373.4844 23.6875,373.1875 24.4375,372.6406 C25.0156,372.2344 25.3438,371.7813 25.3438,371.3906 C25.3438,370.9375 24.9531,370.5469 24.4844,370.5469 C24.2656,370.5469 24.0625,370.625 23.875,370.8125 C23.4219,371.2969 23.4219,371.2969 23.2344,371.3906 C22.8125,371.6563 22.125,371.7813 21.3594,371.7813 C19.3125,371.7813 18.0156,370.6875 18.0156,368.9844 L18.0156,367.8906 C18.0156,366.1094 19.2656,364.7969 21,364.7969 C21.5781,364.7969 22.1875,364.9531 22.6563,365.2031 C23.1406,365.4844 23.3125,365.7031 23.4063,366.1094 C23.4688,366.5156 23.5,366.6406 23.6406,366.7656 C23.7813,366.9063 24.0156,367.0156 24.2344,367.0156 C24.5,367.0156 24.7656,366.875 24.9375,366.6563 C25.0469,366.5 25.0781,366.3125 25.0781,365.8906 L25.0781,364.4688 C25.0781,364.0313 25.0625,363.9063 24.9688,363.75 C24.8125,363.4844 24.5313,363.3438 24.2344,363.3438 C23.9375,363.3438 23.7344,363.4375 23.5156,363.75 L23.3438,363.6719 Z "/><text fill="#000000" font-family="sans-serif" font-size="12" lengthAdjust="spacingAndGlyphs" textLength="88" x="35" y="372.1543">OwnerDeleted</text><line style="stroke: #A80036; stroke-width: 1.5;" x1="7" x2="125" y1="384" y2="384"/><line style="stroke: #A80036; stroke-width: 1.5;" x1="7" x2="125" y1="392" y2="392"/><!--MD5=[97441ddc76591b31c401ce8d003af06c]
class OwnerRegistered--><rect fill="#FEFECE" filter="url(#f1v1uvw6m5txli)" height="48" id="OwnerRegistered" style="stroke: #A80036; stroke-width: 1.5;" width="138" x="161" y="352"/><ellipse cx="176" cy="368" fill="#ADD1B2" rx="11" ry="11" style="stroke: #A80036; stroke-width: 1.0;"/><path d="M178.3438,363.6719 C177.4063,363.2344 176.8125,363.0938 175.9375,363.0938 C173.3125,363.0938 171.3125,365.1719 171.3125,367.8906 L171.3125,369.0156 C171.3125,371.5938 173.4219,373.4844 176.3125,373.4844 C177.5313,373.4844 178.6875,373.1875 179.4375,372.6406 C180.0156,372.2344 180.3438,371.7813 180.3438,371.3906 C180.3438,370.9375 179.9531,370.5469 179.4844,370.5469 C179.2656,370.5469 179.0625,370.625 178.875,370.8125 C178.4219,371.2969 178.4219,371.2969 178.2344,371.3906 C177.8125,371.6563 177.125,371.7813 176.3594,371.7813 C174.3125,371.7813 173.0156,370.6875 173.0156,368.9844 L173.0156,367.8906 C173.0156,366.1094 174.2656,364.7969 176,364.7969 C176.5781,364.7969 177.1875,364.9531 177.6563,365.2031 C178.1406,365.4844 178.3125,365.7031 178.4063,366.1094 C178.4688,366.5156 178.5,366.6406 178.6406,366.7656 C178.7813,366.9063 179.0156,367.0156 179.2344,367.0156 C179.5,367.0156 179.7656,366.875 179.9375,366.6563 C180.0469,366.5 180.0781,366.3125 180.0781,365.8906 L180.0781,364.4688 C180.0781,364.0313 180.0625,363.9063 179.9688,363.75 C179.8125,363.4844 179.5313,363.3438 179.2344,363.3438 C178.9375,363.3438 178.7344,363.4375 178.5156,363.75 L178.3438,363.6719 Z "/><text fill="#000000" font-family="sans-serif" font-size="12" lengthAdjust="spacingAndGlyphs" textLength="106" x="190" y="372.1543">OwnerRegistered</text><line style="stroke: #A80036; stroke-width: 1.5;" x1="162" x2="298" y1="384" y2="384"/><line style="stroke: #A80036; stroke-width: 1.5;" x1="162" x2="298" y1="392" y2="392"/><!--MD5=[e4ccc208087c3c2c41994e04d72abb71]
class OwnerUpdated--><rect fill="#FEFECE" filter="url(#f1v1uvw6m5txli)" height="48" id="OwnerUpdated" style="stroke: #A80036; stroke-width: 1.5;" width="124" x="334" y="352"/><ellipse cx="349" cy="368" fill="#ADD1B2" rx="11" ry="11" style="stroke: #A80036; stroke-width: 1.0;"/><path d="M351.3438,363.6719 C350.4063,363.2344 349.8125,363.0938 348.9375,363.0938 C346.3125,363.0938 344.3125,365.1719 344.3125,367.8906 L344.3125,369.0156 C344.3125,371.5938 346.4219,373.4844 349.3125,373.4844 C350.5313,373.4844 351.6875,373.1875 352.4375,372.6406 C353.0156,372.2344 353.3438,371.7813 353.3438,371.3906 C353.3438,370.9375 352.9531,370.5469 352.4844,370.5469 C352.2656,370.5469 352.0625,370.625 351.875,370.8125 C351.4219,371.2969 351.4219,371.2969 351.2344,371.3906 C350.8125,371.6563 350.125,371.7813 349.3594,371.7813 C347.3125,371.7813 346.0156,370.6875 346.0156,368.9844 L346.0156,367.8906 C346.0156,366.1094 347.2656,364.7969 349,364.7969 C349.5781,364.7969 350.1875,364.9531 350.6563,365.2031 C351.1406,365.4844 351.3125,365.7031 351.4063,366.1094 C351.4688,366.5156 351.5,366.6406 351.6406,366.7656 C351.7813,366.9063 352.0156,367.0156 352.2344,367.0156 C352.5,367.0156 352.7656,366.875 352.9375,366.6563 C353.0469,366.5 353.0781,366.3125 353.0781,365.8906 L353.0781,364.4688 C353.0781,364.0313 353.0625,363.9063 352.9688,363.75 C352.8125,363.4844 352.5313,363.3438 352.2344,363.3438 C351.9375,363.3438 351.7344,363.4375 351.5156,363.75 L351.3438,363.6719 Z "/><text fill="#000000" font-family="sans-serif" font-size="12" lengthAdjust="spacingAndGlyphs" textLength="92" x="363" y="372.1543">OwnerUpdated</text><line style="stroke: #A80036; stroke-width: 1.5;" x1="335" x2="457" y1="384" y2="384"/><line style="stroke: #A80036; stroke-width: 1.5;" x1="335" x2="457" y1="392" y2="392"/><!--MD5=[51255159981deef4d2967e1585ccf960]
class EventType--><rect fill="#FEFECE" filter="url(#f1v1uvw6m5txli)" height="124.8281" id="EventType" style="stroke: #A80036; stroke-width: 1.5;" width="245" x="1163.5" y="8"/><ellipse cx="1250.25" cy="24" fill="#ADD1B2" rx="11" ry="11" style="stroke: #A80036; stroke-width: 1.0;"/><path d="M1252.5938,19.6719 C1251.6563,19.2344 1251.0625,19.0938 1250.1875,19.0938 C1247.5625,19.0938 1245.5625,21.1719 1245.5625,23.8906 L1245.5625,25.0156 C1245.5625,27.5938 1247.6719,29.4844 1250.5625,29.4844 C1251.7813,29.4844 1252.9375,29.1875 1253.6875,28.6406 C1254.2656,28.2344 1254.5938,27.7813 1254.5938,27.3906 C1254.5938,26.9375 1254.2031,26.5469 1253.7344,26.5469 C1253.5156,26.5469 1253.3125,26.625 1253.125,26.8125 C1252.6719,27.2969 1252.6719,27.2969 1252.4844,27.3906 C1252.0625,27.6563 1251.375,27.7813 1250.6094,27.7813 C1248.5625,27.7813 1247.2656,26.6875 1247.2656,24.9844 L1247.2656,23.8906 C1247.2656,22.1094 1248.5156,20.7969 1250.25,20.7969 C1250.8281,20.7969 1251.4375,20.9531 1251.9063,21.2031 C1252.3906,21.4844 1252.5625,21.7031 1252.6563,22.1094 C1252.7188,22.5156 1252.75,22.6406 1252.8906,22.7656 C1253.0313,22.9063 1253.2656,23.0156 1253.4844,23.0156 C1253.75,23.0156 1254.0156,22.875 1254.1875,22.6563 C1254.2969,22.5 1254.3281,22.3125 1254.3281,21.8906 L1254.3281,20.4688 C1254.3281,20.0313 1254.3125,19.9063 1254.2188,19.75 C1254.0625,19.4844 1253.7813,19.3438 1253.4844,19.3438 C1253.1875,19.3438 1252.9844,19.4375 1252.7656,19.75 L1252.5938,19.6719 Z "/><text fill="#000000" font-family="sans-serif" font-size="12" lengthAdjust="spacingAndGlyphs" textLength="63" x="1270.75" y="28.1543">EventType</text><line style="stroke: #A80036; stroke-width: 1.5;" x1="1164.5" x2="1407.5" y1="40" y2="40"/><rect fill="none" height="6" style="stroke: #C82930; stroke-width: 1.0;" width="6" x="1171.5" y="48"/><text fill="#000000" font-family="sans-serif" font-size="11" lengthAdjust="spacingAndGlyphs" textLength="219" x="1183.5" y="54.2104">supportedTypes: { [key: string]: any; }</text><rect fill="none" height="6" style="stroke: #C82930; stroke-width: 1.0;" width="6" x="1171.5" y="60.8047"/><text fill="#000000" font-family="sans-serif" font-size="11" lengthAdjust="spacingAndGlyphs" textLength="219" x="1183.5" y="67.0151">supportedTypes: { [key: string]: any; }</text><line style="stroke: #A80036; stroke-width: 1.5;" x1="1164.5" x2="1407.5" y1="73.6094" y2="73.6094"/><ellipse cx="1174.5" cy="84.6094" fill="#84BE84" rx="3" ry="3" style="stroke: #038048; stroke-width: 1.0;"/><text fill="#000000" font-family="sans-serif" font-size="11" lengthAdjust="spacingAndGlyphs" textLength="185" x="1183.5" y="87.8198">getType(eventType: string): any</text><rect fill="#F24D5C" height="6" style="stroke: #C82930; stroke-width: 1.0;" width="6" x="1171.5" y="94.4141"/><text fill="#000000" font-family="sans-serif" font-size="11" lengthAdjust="spacingAndGlyphs" textLength="122" x="1183.5" y="100.6245">add(event: any): void</text><ellipse cx="1174.5" cy="110.2188" fill="#84BE84" rx="3" ry="3" style="stroke: #038048; stroke-width: 1.0;"/><text fill="#000000" font-family="sans-serif" font-size="11" lengthAdjust="spacingAndGlyphs" textLength="185" x="1183.5" y="113.4292">getType(eventType: string): any</text><rect fill="#F24D5C" height="6" style="stroke: #C82930; stroke-width: 1.0;" width="6" x="1171.5" y="120.0234"/><text fill="#000000" font-family="sans-serif" font-size="11" lengthAdjust="spacingAndGlyphs" textLength="122" x="1183.5" y="126.2339">add(event: any): void</text><!--MD5=[1d5b4405d13d84db08d2386681619536]
class SensorActivated--><rect fill="#FEFECE" filter="url(#f1v1uvw6m5txli)" height="48" id="SensorActivated" style="stroke: #A80036; stroke-width: 1.5;" width="131" x="493.5" y="352"/><ellipse cx="508.5" cy="368" fill="#ADD1B2" rx="11" ry="11" style="stroke: #A80036; stroke-width: 1.0;"/><path d="M510.8438,363.6719 C509.9063,363.2344 509.3125,363.0938 508.4375,363.0938 C505.8125,363.0938 503.8125,365.1719 503.8125,367.8906 L503.8125,369.0156 C503.8125,371.5938 505.9219,373.4844 508.8125,373.4844 C510.0313,373.4844 511.1875,373.1875 511.9375,372.6406 C512.5156,372.2344 512.8438,371.7813 512.8438,371.3906 C512.8438,370.9375 512.4531,370.5469 511.9844,370.5469 C511.7656,370.5469 511.5625,370.625 511.375,370.8125 C510.9219,371.2969 510.9219,371.2969 510.7344,371.3906 C510.3125,371.6563 509.625,371.7813 508.8594,371.7813 C506.8125,371.7813 505.5156,370.6875 505.5156,368.9844 L505.5156,367.8906 C505.5156,366.1094 506.7656,364.7969 508.5,364.7969 C509.0781,364.7969 509.6875,364.9531 510.1563,365.2031 C510.6406,365.4844 510.8125,365.7031 510.9063,366.1094 C510.9688,366.5156 511,366.6406 511.1406,366.7656 C511.2813,366.9063 511.5156,367.0156 511.7344,367.0156 C512,367.0156 512.2656,366.875 512.4375,366.6563 C512.5469,366.5 512.5781,366.3125 512.5781,365.8906 L512.5781,364.4688 C512.5781,364.0313 512.5625,363.9063 512.4688,363.75 C512.3125,363.4844 512.0313,363.3438 511.7344,363.3438 C511.4375,363.3438 511.2344,363.4375 511.0156,363.75 L510.8438,363.6719 Z "/><text fill="#000000" font-family="sans-serif" font-size="12" lengthAdjust="spacingAndGlyphs" textLength="99" x="522.5" y="372.1543">SensorActivated</text><line style="stroke: #A80036; stroke-width: 1.5;" x1="494.5" x2="623.5" y1="384" y2="384"/><line style="stroke: #A80036; stroke-width: 1.5;" x1="494.5" x2="623.5" y1="392" y2="392"/><!--MD5=[3a49dcf64c6044691d75787ca2524cc2]
class DatastreamAdded--><rect fill="#FEFECE" filter="url(#f1v1uvw6m5txli)" height="48" id="DatastreamAdded" style="stroke: #A80036; stroke-width: 1.5;" width="141" x="659.5" y="352"/><ellipse cx="674.5" cy="368" fill="#ADD1B2" rx="11" ry="11" style="stroke: #A80036; stroke-width: 1.0;"/><path d="M676.8438,363.6719 C675.9063,363.2344 675.3125,363.0938 674.4375,363.0938 C671.8125,363.0938 669.8125,365.1719 669.8125,367.8906 L669.8125,369.0156 C669.8125,371.5938 671.9219,373.4844 674.8125,373.4844 C676.0313,373.4844 677.1875,373.1875 677.9375,372.6406 C678.5156,372.2344 678.8438,371.7813 678.8438,371.3906 C678.8438,370.9375 678.4531,370.5469 677.9844,370.5469 C677.7656,370.5469 677.5625,370.625 677.375,370.8125 C676.9219,371.2969 676.9219,371.2969 676.7344,371.3906 C676.3125,371.6563 675.625,371.7813 674.8594,371.7813 C672.8125,371.7813 671.5156,370.6875 671.5156,368.9844 L671.5156,367.8906 C671.5156,366.1094 672.7656,364.7969 674.5,364.7969 C675.0781,364.7969 675.6875,364.9531 676.1563,365.2031 C676.6406,365.4844 676.8125,365.7031 676.9063,366.1094 C676.9688,366.5156 677,366.6406 677.1406,366.7656 C677.2813,366.9063 677.5156,367.0156 677.7344,367.0156 C678,367.0156 678.2656,366.875 678.4375,366.6563 C678.5469,366.5 678.5781,366.3125 678.5781,365.8906 L678.5781,364.4688 C678.5781,364.0313 678.5625,363.9063 678.4688,363.75 C678.3125,363.4844 678.0313,363.3438 677.7344,363.3438 C677.4375,363.3438 677.2344,363.4375 677.0156,363.75 L676.8438,363.6719 Z "/><text fill="#000000" font-family="sans-serif" font-size="12" lengthAdjust="spacingAndGlyphs" textLength="109" x="688.5" y="372.1543">DatastreamAdded</text><line style="stroke: #A80036; stroke-width: 1.5;" x1="660.5" x2="799.5" y1="384" y2="384"/><line style="stroke: #A80036; stroke-width: 1.5;" x1="660.5" x2="799.5" y1="392" y2="392"/><!--MD5=[869363e3486fae0bc6cabca84db40d49]
class DatastreamDeleted--><rect fill="#FEFECE" filter="url(#f1v1uvw6m5txli)" height="48" id="DatastreamDeleted" style="stroke: #A80036; stroke-width: 1.5;" width="149" x="835.5" y="352"/><ellipse cx="850.5" cy="368" fill="#ADD1B2" rx="11" ry="11" style="stroke: #A80036; stroke-width: 1.0;"/><path d="M852.8438,363.6719 C851.9063,363.2344 851.3125,363.0938 850.4375,363.0938 C847.8125,363.0938 845.8125,365.1719 845.8125,367.8906 L845.8125,369.0156 C845.8125,371.5938 847.9219,373.4844 850.8125,373.4844 C852.0313,373.4844 853.1875,373.1875 853.9375,372.6406 C854.5156,372.2344 854.8438,371.7813 854.8438,371.3906 C854.8438,370.9375 854.4531,370.5469 853.9844,370.5469 C853.7656,370.5469 853.5625,370.625 853.375,370.8125 C852.9219,371.2969 852.9219,371.2969 852.7344,371.3906 C852.3125,371.6563 851.625,371.7813 850.8594,371.7813 C848.8125,371.7813 847.5156,370.6875 847.5156,368.9844 L847.5156,367.8906 C847.5156,366.1094 848.7656,364.7969 850.5,364.7969 C851.0781,364.7969 851.6875,364.9531 852.1563,365.2031 C852.6406,365.4844 852.8125,365.7031 852.9063,366.1094 C852.9688,366.5156 853,366.6406 853.1406,366.7656 C853.2813,366.9063 853.5156,367.0156 853.7344,367.0156 C854,367.0156 854.2656,366.875 854.4375,366.6563 C854.5469,366.5 854.5781,366.3125 854.5781,365.8906 L854.5781,364.4688 C854.5781,364.0313 854.5625,363.9063 854.4688,363.75 C854.3125,363.4844 854.0313,363.3438 853.7344,363.3438 C853.4375,363.3438 853.2344,363.4375 853.0156,363.75 L852.8438,363.6719 Z "/><text fill="#000000" font-family="sans-serif" font-size="12" lengthAdjust="spacingAndGlyphs" textLength="117" x="864.5" y="372.1543">DatastreamDeleted</text><line style="stroke: #A80036; stroke-width: 1.5;" x1="836.5" x2="983.5" y1="384" y2="384"/><line style="stroke: #A80036; stroke-width: 1.5;" x1="836.5" x2="983.5" y1="392" y2="392"/><!--MD5=[c07e3d3b8e99694cecdd0d9f468fcef6]
class SensorDeactivated--><rect fill="#FEFECE" filter="url(#f1v1uvw6m5txli)" height="48" id="SensorDeactivated" style="stroke: #A80036; stroke-width: 1.5;" width="147" x="1019.5" y="352"/><ellipse cx="1034.5" cy="368" fill="#ADD1B2" rx="11" ry="11" style="stroke: #A80036; stroke-width: 1.0;"/><path d="M1036.8438,363.6719 C1035.9063,363.2344 1035.3125,363.0938 1034.4375,363.0938 C1031.8125,363.0938 1029.8125,365.1719 1029.8125,367.8906 L1029.8125,369.0156 C1029.8125,371.5938 1031.9219,373.4844 1034.8125,373.4844 C1036.0313,373.4844 1037.1875,373.1875 1037.9375,372.6406 C1038.5156,372.2344 1038.8438,371.7813 1038.8438,371.3906 C1038.8438,370.9375 1038.4531,370.5469 1037.9844,370.5469 C1037.7656,370.5469 1037.5625,370.625 1037.375,370.8125 C1036.9219,371.2969 1036.9219,371.2969 1036.7344,371.3906 C1036.3125,371.6563 1035.625,371.7813 1034.8594,371.7813 C1032.8125,371.7813 1031.5156,370.6875 1031.5156,368.9844 L1031.5156,367.8906 C1031.5156,366.1094 1032.7656,364.7969 1034.5,364.7969 C1035.0781,364.7969 1035.6875,364.9531 1036.1563,365.2031 C1036.6406,365.4844 1036.8125,365.7031 1036.9063,366.1094 C1036.9688,366.5156 1037,366.6406 1037.1406,366.7656 C1037.2813,366.9063 1037.5156,367.0156 1037.7344,367.0156 C1038,367.0156 1038.2656,366.875 1038.4375,366.6563 C1038.5469,366.5 1038.5781,366.3125 1038.5781,365.8906 L1038.5781,364.4688 C1038.5781,364.0313 1038.5625,363.9063 1038.4688,363.75 C1038.3125,363.4844 1038.0313,363.3438 1037.7344,363.3438 C1037.4375,363.3438 1037.2344,363.4375 1037.0156,363.75 L1036.8438,363.6719 Z "/><text fill="#000000" font-family="sans-serif" font-size="12" lengthAdjust="spacingAndGlyphs" textLength="115" x="1048.5" y="372.1543">SensorDeactivated</text><line style="stroke: #A80036; stroke-width: 1.5;" x1="1020.5" x2="1165.5" y1="384" y2="384"/><line style="stroke: #A80036; stroke-width: 1.5;" x1="1020.5" x2="1165.5" y1="392" y2="392"/><!--MD5=[de9ddbc35db767bbb90319827ceadbb2]
class SensorDeleted--><rect fill="#FEFECE" filter="url(#f1v1uvw6m5txli)" height="48" id="SensorDeleted" style="stroke: #A80036; stroke-width: 1.5;" width="123" x="1201.5" y="352"/><ellipse cx="1216.5" cy="368" fill="#ADD1B2" rx="11" ry="11" style="stroke: #A80036; stroke-width: 1.0;"/><path d="M1218.8438,363.6719 C1217.9063,363.2344 1217.3125,363.0938 1216.4375,363.0938 C1213.8125,363.0938 1211.8125,365.1719 1211.8125,367.8906 L1211.8125,369.0156 C1211.8125,371.5938 1213.9219,373.4844 1216.8125,373.4844 C1218.0313,373.4844 1219.1875,373.1875 1219.9375,372.6406 C1220.5156,372.2344 1220.8438,371.7813 1220.8438,371.3906 C1220.8438,370.9375 1220.4531,370.5469 1219.9844,370.5469 C1219.7656,370.5469 1219.5625,370.625 1219.375,370.8125 C1218.9219,371.2969 1218.9219,371.2969 1218.7344,371.3906 C1218.3125,371.6563 1217.625,371.7813 1216.8594,371.7813 C1214.8125,371.7813 1213.5156,370.6875 1213.5156,368.9844 L1213.5156,367.8906 C1213.5156,366.1094 1214.7656,364.7969 1216.5,364.7969 C1217.0781,364.7969 1217.6875,364.9531 1218.1563,365.2031 C1218.6406,365.4844 1218.8125,365.7031 1218.9063,366.1094 C1218.9688,366.5156 1219,366.6406 1219.1406,366.7656 C1219.2813,366.9063 1219.5156,367.0156 1219.7344,367.0156 C1220,367.0156 1220.2656,366.875 1220.4375,366.6563 C1220.5469,366.5 1220.5781,366.3125 1220.5781,365.8906 L1220.5781,364.4688 C1220.5781,364.0313 1220.5625,363.9063 1220.4688,363.75 C1220.3125,363.4844 1220.0313,363.3438 1219.7344,363.3438 C1219.4375,363.3438 1219.2344,363.4375 1219.0156,363.75 L1218.8438,363.6719 Z "/><text fill="#000000" font-family="sans-serif" font-size="12" lengthAdjust="spacingAndGlyphs" textLength="91" x="1230.5" y="372.1543">SensorDeleted</text><line style="stroke: #A80036; stroke-width: 1.5;" x1="1202.5" x2="1323.5" y1="384" y2="384"/><line style="stroke: #A80036; stroke-width: 1.5;" x1="1202.5" x2="1323.5" y1="392" y2="392"/><!--MD5=[799f8823ef1f856a6f6dc42f36e1256a]
class LocationBody--><rect fill="#FEFECE" filter="url(#f1v1uvw6m5txli)" height="112.0234" id="LocationBody" style="stroke: #A80036; stroke-width: 1.5;" width="139" x="1443.5" y="14.5"/><ellipse cx="1470.2" cy="30.5" fill="#ADD1B2" rx="11" ry="11" style="stroke: #A80036; stroke-width: 1.0;"/><path d="M1472.5438,26.1719 C1471.6063,25.7344 1471.0125,25.5938 1470.1375,25.5938 C1467.5125,25.5938 1465.5125,27.6719 1465.5125,30.3906 L1465.5125,31.5156 C1465.5125,34.0938 1467.6219,35.9844 1470.5125,35.9844 C1471.7313,35.9844 1472.8875,35.6875 1473.6375,35.1406 C1474.2156,34.7344 1474.5438,34.2813 1474.5438,33.8906 C1474.5438,33.4375 1474.1531,33.0469 1473.6844,33.0469 C1473.4656,33.0469 1473.2625,33.125 1473.075,33.3125 C1472.6219,33.7969 1472.6219,33.7969 1472.4344,33.8906 C1472.0125,34.1563 1471.325,34.2813 1470.5594,34.2813 C1468.5125,34.2813 1467.2156,33.1875 1467.2156,31.4844 L1467.2156,30.3906 C1467.2156,28.6094 1468.4656,27.2969 1470.2,27.2969 C1470.7781,27.2969 1471.3875,27.4531 1471.8563,27.7031 C1472.3406,27.9844 1472.5125,28.2031 1472.6063,28.6094 C1472.6688,29.0156 1472.7,29.1406 1472.8406,29.2656 C1472.9813,29.4063 1473.2156,29.5156 1473.4344,29.5156 C1473.7,29.5156 1473.9656,29.375 1474.1375,29.1563 C1474.2469,29 1474.2781,28.8125 1474.2781,28.3906 L1474.2781,26.9688 C1474.2781,26.5313 1474.2625,26.4063 1474.1688,26.25 C1474.0125,25.9844 1473.7313,25.8438 1473.4344,25.8438 C1473.1375,25.8438 1472.9344,25.9375 1472.7156,26.25 L1472.5438,26.1719 Z "/><text fill="#000000" font-family="sans-serif" font-size="12" lengthAdjust="spacingAndGlyphs" textLength="81" x="1486.8" y="34.6543">LocationBody</text><line style="stroke: #A80036; stroke-width: 1.5;" x1="1444.5" x2="1581.5" y1="46.5" y2="46.5"/><ellipse cx="1454.5" cy="57.5" fill="none" rx="3" ry="3" style="stroke: #038048; stroke-width: 1.0;"/><text fill="#000000" font-family="sans-serif" font-size="11" lengthAdjust="spacingAndGlyphs" textLength="58" x="1463.5" y="60.7104">x: number</text><ellipse cx="1454.5" cy="70.3047" fill="none" rx="3" ry="3" style="stroke: #038048; stroke-width: 1.0;"/><text fill="#000000" font-family="sans-serif" font-size="11" lengthAdjust="spacingAndGlyphs" textLength="58" x="1463.5" y="73.5151">y: number</text><ellipse cx="1454.5" cy="83.1094" fill="none" rx="3" ry="3" style="stroke: #038048; stroke-width: 1.0;"/><text fill="#000000" font-family="sans-serif" font-size="11" lengthAdjust="spacingAndGlyphs" textLength="58" x="1463.5" y="86.3198">z: number</text><ellipse cx="1454.5" cy="95.9141" fill="none" rx="3" ry="3" style="stroke: #038048; stroke-width: 1.0;"/><text fill="#000000" font-family="sans-serif" font-size="11" lengthAdjust="spacingAndGlyphs" textLength="109" x="1463.5" y="99.1245">epsgCode: number</text><ellipse cx="1454.5" cy="108.7188" fill="none" rx="3" ry="3" style="stroke: #038048; stroke-width: 1.0;"/><text fill="#000000" font-family="sans-serif" font-size="11" lengthAdjust="spacingAndGlyphs" textLength="113" x="1463.5" y="111.9292">baseObjectId: string</text><line style="stroke: #A80036; stroke-width: 1.5;" x1="1444.5" x2="1581.5" y1="118.5234" y2="118.5234"/><!--MD5=[eaa8789abd28f7dc39530ac811961356]
class SensorRegistered--><rect fill="#FEFECE" filter="url(#f1v1uvw6m5txli)" height="48" id="SensorRegistered" style="stroke: #A80036; stroke-width: 1.5;" width="141" x="1359.5" y="352"/><ellipse cx="1374.5" cy="368" fill="#ADD1B2" rx="11" ry="11" style="stroke: #A80036; stroke-width: 1.0;"/><path d="M1376.8438,363.6719 C1375.9063,363.2344 1375.3125,363.0938 1374.4375,363.0938 C1371.8125,363.0938 1369.8125,365.1719 1369.8125,367.8906 L1369.8125,369.0156 C1369.8125,371.5938 1371.9219,373.4844 1374.8125,373.4844 C1376.0313,373.4844 1377.1875,373.1875 1377.9375,372.6406 C1378.5156,372.2344 1378.8438,371.7813 1378.8438,371.3906 C1378.8438,370.9375 1378.4531,370.5469 1377.9844,370.5469 C1377.7656,370.5469 1377.5625,370.625 1377.375,370.8125 C1376.9219,371.2969 1376.9219,371.2969 1376.7344,371.3906 C1376.3125,371.6563 1375.625,371.7813 1374.8594,371.7813 C1372.8125,371.7813 1371.5156,370.6875 1371.5156,368.9844 L1371.5156,367.8906 C1371.5156,366.1094 1372.7656,364.7969 1374.5,364.7969 C1375.0781,364.7969 1375.6875,364.9531 1376.1563,365.2031 C1376.6406,365.4844 1376.8125,365.7031 1376.9063,366.1094 C1376.9688,366.5156 1377,366.6406 1377.1406,366.7656 C1377.2813,366.9063 1377.5156,367.0156 1377.7344,367.0156 C1378,367.0156 1378.2656,366.875 1378.4375,366.6563 C1378.5469,366.5 1378.5781,366.3125 1378.5781,365.8906 L1378.5781,364.4688 C1378.5781,364.0313 1378.5625,363.9063 1378.4688,363.75 C1378.3125,363.4844 1378.0313,363.3438 1377.7344,363.3438 C1377.4375,363.3438 1377.2344,363.4375 1377.0156,363.75 L1376.8438,363.6719 Z "/><text fill="#000000" font-family="sans-serif" font-size="12" lengthAdjust="spacingAndGlyphs" textLength="109" x="1388.5" y="372.1543">SensorRegistered</text><line style="stroke: #A80036; stroke-width: 1.5;" x1="1360.5" x2="1499.5" y1="384" y2="384"/><line style="stroke: #A80036; stroke-width: 1.5;" x1="1360.5" x2="1499.5" y1="392" y2="392"/><!--MD5=[c91977c30efde37b86304c015ecea261]
class SensorRelocated--><rect fill="#FEFECE" filter="url(#f1v1uvw6m5txli)" height="48" id="SensorRelocated" style="stroke: #A80036; stroke-width: 1.5;" width="135" x="1535.5" y="352"/><ellipse cx="1550.5" cy="368" fill="#ADD1B2" rx="11" ry="11" style="stroke: #A80036; stroke-width: 1.0;"/><path d="M1552.8438,363.6719 C1551.9063,363.2344 1551.3125,363.0938 1550.4375,363.0938 C1547.8125,363.0938 1545.8125,365.1719 1545.8125,367.8906 L1545.8125,369.0156 C1545.8125,371.5938 1547.9219,373.4844 1550.8125,373.4844 C1552.0313,373.4844 1553.1875,373.1875 1553.9375,372.6406 C1554.5156,372.2344 1554.8438,371.7813 1554.8438,371.3906 C1554.8438,370.9375 1554.4531,370.5469 1553.9844,370.5469 C1553.7656,370.5469 1553.5625,370.625 1553.375,370.8125 C1552.9219,371.2969 1552.9219,371.2969 1552.7344,371.3906 C1552.3125,371.6563 1551.625,371.7813 1550.8594,371.7813 C1548.8125,371.7813 1547.5156,370.6875 1547.5156,368.9844 L1547.5156,367.8906 C1547.5156,366.1094 1548.7656,364.7969 1550.5,364.7969 C1551.0781,364.7969 1551.6875,364.9531 1552.1563,365.2031 C1552.6406,365.4844 1552.8125,365.7031 1552.9063,366.1094 C1552.9688,366.5156 1553,366.6406 1553.1406,366.7656 C1553.2813,366.9063 1553.5156,367.0156 1553.7344,367.0156 C1554,367.0156 1554.2656,366.875 1554.4375,366.6563 C1554.5469,366.5 1554.5781,366.3125 1554.5781,365.8906 L1554.5781,364.4688 C1554.5781,364.0313 1554.5625,363.9063 1554.4688,363.75 C1554.3125,363.4844 1554.0313,363.3438 1553.7344,363.3438 C1553.4375,363.3438 1553.2344,363.4375 1553.0156,363.75 L1552.8438,363.6719 Z "/><text fill="#000000" font-family="sans-serif" font-size="12" lengthAdjust="spacingAndGlyphs" textLength="103" x="1564.5" y="372.1543">SensorRelocated</text><line style="stroke: #A80036; stroke-width: 1.5;" x1="1536.5" x2="1669.5" y1="384" y2="384"/><line style="stroke: #A80036; stroke-width: 1.5;" x1="1536.5" x2="1669.5" y1="392" y2="392"/><!--MD5=[54c5eed8ec832e957e92ec6c673c1f60]
class SensorOwnershipShared--><rect fill="#FEFECE" filter="url(#f1v1uvw6m5txli)" height="48" id="SensorOwnershipShared" style="stroke: #A80036; stroke-width: 1.5;" width="183" x="1705.5" y="352"/><ellipse cx="1720.5" cy="368" fill="#ADD1B2" rx="11" ry="11" style="stroke: #A80036; stroke-width: 1.0;"/><path d="M1722.8438,363.6719 C1721.9063,363.2344 1721.3125,363.0938 1720.4375,363.0938 C1717.8125,363.0938 1715.8125,365.1719 1715.8125,367.8906 L1715.8125,369.0156 C1715.8125,371.5938 1717.9219,373.4844 1720.8125,373.4844 C1722.0313,373.4844 1723.1875,373.1875 1723.9375,372.6406 C1724.5156,372.2344 1724.8438,371.7813 1724.8438,371.3906 C1724.8438,370.9375 1724.4531,370.5469 1723.9844,370.5469 C1723.7656,370.5469 1723.5625,370.625 1723.375,370.8125 C1722.9219,371.2969 1722.9219,371.2969 1722.7344,371.3906 C1722.3125,371.6563 1721.625,371.7813 1720.8594,371.7813 C1718.8125,371.7813 1717.5156,370.6875 1717.5156,368.9844 L1717.5156,367.8906 C1717.5156,366.1094 1718.7656,364.7969 1720.5,364.7969 C1721.0781,364.7969 1721.6875,364.9531 1722.1563,365.2031 C1722.6406,365.4844 1722.8125,365.7031 1722.9063,366.1094 C1722.9688,366.5156 1723,366.6406 1723.1406,366.7656 C1723.2813,366.9063 1723.5156,367.0156 1723.7344,367.0156 C1724,367.0156 1724.2656,366.875 1724.4375,366.6563 C1724.5469,366.5 1724.5781,366.3125 1724.5781,365.8906 L1724.5781,364.4688 C1724.5781,364.0313 1724.5625,363.9063 1724.4688,363.75 C1724.3125,363.4844 1724.0313,363.3438 1723.7344,363.3438 C1723.4375,363.3438 1723.2344,363.4375 1723.0156,363.75 L1722.8438,363.6719 Z "/><text fill="#000000" font-family="sans-serif" font-size="12" lengthAdjust="spacingAndGlyphs" textLength="151" x="1734.5" y="372.1543">SensorOwnershipShared</text><line style="stroke: #A80036; stroke-width: 1.5;" x1="1706.5" x2="1887.5" y1="384" y2="384"/><line style="stroke: #A80036; stroke-width: 1.5;" x1="1706.5" x2="1887.5" y1="392" y2="392"/><!--MD5=[0fef996e22f29155d896908d34f75efb]
class SensorOwnershipTransferred--><rect fill="#FEFECE" filter="url(#f1v1uvw6m5txli)" height="48" id="SensorOwnershipTransferred" style="stroke: #A80036; stroke-width: 1.5;" width="211" x="1923.5" y="352"/><ellipse cx="1938.5" cy="368" fill="#ADD1B2" rx="11" ry="11" style="stroke: #A80036; stroke-width: 1.0;"/><path d="M1940.8438,363.6719 C1939.9063,363.2344 1939.3125,363.0938 1938.4375,363.0938 C1935.8125,363.0938 1933.8125,365.1719 1933.8125,367.8906 L1933.8125,369.0156 C1933.8125,371.5938 1935.9219,373.4844 1938.8125,373.4844 C1940.0313,373.4844 1941.1875,373.1875 1941.9375,372.6406 C1942.5156,372.2344 1942.8438,371.7813 1942.8438,371.3906 C1942.8438,370.9375 1942.4531,370.5469 1941.9844,370.5469 C1941.7656,370.5469 1941.5625,370.625 1941.375,370.8125 C1940.9219,371.2969 1940.9219,371.2969 1940.7344,371.3906 C1940.3125,371.6563 1939.625,371.7813 1938.8594,371.7813 C1936.8125,371.7813 1935.5156,370.6875 1935.5156,368.9844 L1935.5156,367.8906 C1935.5156,366.1094 1936.7656,364.7969 1938.5,364.7969 C1939.0781,364.7969 1939.6875,364.9531 1940.1563,365.2031 C1940.6406,365.4844 1940.8125,365.7031 1940.9063,366.1094 C1940.9688,366.5156 1941,366.6406 1941.1406,366.7656 C1941.2813,366.9063 1941.5156,367.0156 1941.7344,367.0156 C1942,367.0156 1942.2656,366.875 1942.4375,366.6563 C1942.5469,366.5 1942.5781,366.3125 1942.5781,365.8906 L1942.5781,364.4688 C1942.5781,364.0313 1942.5625,363.9063 1942.4688,363.75 C1942.3125,363.4844 1942.0313,363.3438 1941.7344,363.3438 C1941.4375,363.3438 1941.2344,363.4375 1941.0156,363.75 L1940.8438,363.6719 Z "/><text fill="#000000" font-family="sans-serif" font-size="12" lengthAdjust="spacingAndGlyphs" textLength="179" x="1952.5" y="372.1543">SensorOwnershipTransferred</text><line style="stroke: #A80036; stroke-width: 1.5;" x1="1924.5" x2="2133.5" y1="384" y2="384"/><line style="stroke: #A80036; stroke-width: 1.5;" x1="1924.5" x2="2133.5" y1="392" y2="392"/><!--MD5=[ddbf0914b664dd97922e718dfb6629ba]
class SensorUpdated--><rect fill="#FEFECE" filter="url(#f1v1uvw6m5txli)" height="48" id="SensorUpdated" style="stroke: #A80036; stroke-width: 1.5;" width="127" x="2169.5" y="352"/><ellipse cx="2184.5" cy="368" fill="#ADD1B2" rx="11" ry="11" style="stroke: #A80036; stroke-width: 1.0;"/><path d="M2186.8438,363.6719 C2185.9063,363.2344 2185.3125,363.0938 2184.4375,363.0938 C2181.8125,363.0938 2179.8125,365.1719 2179.8125,367.8906 L2179.8125,369.0156 C2179.8125,371.5938 2181.9219,373.4844 2184.8125,373.4844 C2186.0313,373.4844 2187.1875,373.1875 2187.9375,372.6406 C2188.5156,372.2344 2188.8438,371.7813 2188.8438,371.3906 C2188.8438,370.9375 2188.4531,370.5469 2187.9844,370.5469 C2187.7656,370.5469 2187.5625,370.625 2187.375,370.8125 C2186.9219,371.2969 2186.9219,371.2969 2186.7344,371.3906 C2186.3125,371.6563 2185.625,371.7813 2184.8594,371.7813 C2182.8125,371.7813 2181.5156,370.6875 2181.5156,368.9844 L2181.5156,367.8906 C2181.5156,366.1094 2182.7656,364.7969 2184.5,364.7969 C2185.0781,364.7969 2185.6875,364.9531 2186.1563,365.2031 C2186.6406,365.4844 2186.8125,365.7031 2186.9063,366.1094 C2186.9688,366.5156 2187,366.6406 2187.1406,366.7656 C2187.2813,366.9063 2187.5156,367.0156 2187.7344,367.0156 C2188,367.0156 2188.2656,366.875 2188.4375,366.6563 C2188.5469,366.5 2188.5781,366.3125 2188.5781,365.8906 L2188.5781,364.4688 C2188.5781,364.0313 2188.5625,363.9063 2188.4688,363.75 C2188.3125,363.4844 2188.0313,363.3438 2187.7344,363.3438 C2187.4375,363.3438 2187.2344,363.4375 2187.0156,363.75 L2186.8438,363.6719 Z "/><text fill="#000000" font-family="sans-serif" font-size="12" lengthAdjust="spacingAndGlyphs" textLength="95" x="2198.5" y="372.1543">SensorUpdated</text><line style="stroke: #A80036; stroke-width: 1.5;" x1="2170.5" x2="2295.5" y1="384" y2="384"/><line style="stroke: #A80036; stroke-width: 1.5;" x1="2170.5" x2="2295.5" y1="392" y2="392"/><!--MD5=[3142a96ca36ce3be21dcafd941b21745]
reverse link IEvent to Event--><path d="M1093,115.05 C1093,138.78 1093,168.217 1093,192.717 " fill="none" id="IEvent&lt;-Event" style="stroke: #A80036; stroke-width: 1.0; stroke-dasharray: 7.0,7.0;"/><polygon fill="none" points="1086,114.781,1093,94.781,1100,114.781,1086,114.781" style="stroke: #A80036; stroke-width: 1.0;"/><!--MD5=[eae90c8689e5da53ac6d9a6667287444]
reverse link Event to OwnerDeleted--><path d="M1009.15,248.091 C842.626,258.302 459.009,287.286 143,352 C137.533,353.1196 131.894,354.4508 126.271,355.9003 " fill="none" id="Event&lt;-OwnerDeleted" style="stroke: #A80036; stroke-width: 1.0;"/><polygon fill="none" points="1008.92,241.092,1029.3,246.883,1009.76,255.067,1008.92,241.092" style="stroke: #A80036; stroke-width: 1.0;"/><!--MD5=[7374a48a4c58ad611781889c3a10585f]
reverse link Event to OwnerRegistered--><path d="M1009.43,251.77 C866.466,266.673 566.169,301.2794 316,352 C310.547,353.1056 304.927,354.355 299.295,355.686 " fill="none" id="Event&lt;-OwnerRegistered" style="stroke: #A80036; stroke-width: 1.0;"/><polygon fill="none" points="1008.74,244.804,1029.35,249.714,1010.18,258.73,1008.74,244.804" style="stroke: #A80036; stroke-width: 1.0;"/><!--MD5=[8215117bc4bcf3ae93e5647ae98deb86]
reverse link Event to OwnerUpdated--><path d="M1009.56,255.303 C890.451,272.802 665.137,308.3109 476,352 C470.227,353.3335 464.251,354.8299 458.285,356.4027 " fill="none" id="Event&lt;-OwnerUpdated" style="stroke: #A80036; stroke-width: 1.0;"/><polygon fill="none" points="1008.69,248.357,1029.49,252.399,1010.71,262.21,1008.69,248.357" style="stroke: #A80036; stroke-width: 1.0;"/><!--MD5=[64a18a0a6cd739fa447513bfadf09da4]
reverse link Event to SensorActivated--><path d="M1009.81,262.613 C919.155,283.653 769.932,318.8961 642,352 C636.354,353.4609 630.503,355.0104 624.638,356.5878 " fill="none" id="Event&lt;-SensorActivated" style="stroke: #A80036; stroke-width: 1.0;"/><polygon fill="none" points="1008.28,255.783,1029.34,258.09,1011.44,269.422,1008.28,255.783" style="stroke: #A80036; stroke-width: 1.0;"/><!--MD5=[9a38544947334d4e0bfe22260953589c]
reverse link Event to DatastreamAdded--><path d="M1010.22,273.487 C944.426,297.322 853.749,330.1707 793.572,351.9704 " fill="none" id="Event&lt;-DatastreamAdded" style="stroke: #A80036; stroke-width: 1.0;"/><polygon fill="none" points="1008.17,266.787,1029.35,266.556,1012.93,279.95,1008.17,266.787" style="stroke: #A80036; stroke-width: 1.0;"/><!--MD5=[e13a837f0a84ca9e780a3708edc26783]
reverse link Event to DatastreamDeleted--><path d="M1012.72,301.1883 C987.833,319.0712 961.822,337.7618 942.202,351.8606 " fill="none" id="Event&lt;-DatastreamDeleted" style="stroke: #A80036; stroke-width: 1.0;"/><polygon fill="none" points="1008.93,295.294,1029.25,289.308,1017.1,306.6632,1008.93,295.294" style="stroke: #A80036; stroke-width: 1.0;"/><!--MD5=[67d9a4469c48025527f07315707e3251]
reverse link Event to SensorDeactivated--><path d="M1093,312.2257 C1093,326.5804 1093,340.7456 1093,351.9769 " fill="none" id="Event&lt;-SensorDeactivated" style="stroke: #A80036; stroke-width: 1.0;"/><polygon fill="none" points="1086,312.0922,1093,292.092,1100,312.0921,1086,312.0922" style="stroke: #A80036; stroke-width: 1.0;"/><!--MD5=[39d3e509a14626cfda9dbe37554a39b2]
reverse link Event to SensorDeleted--><path d="M1171.93,304.5509 C1193.76,321.4399 1216.13,338.7446 1233.24,351.9769 " fill="none" id="Event&lt;-SensorDeleted" style="stroke: #A80036; stroke-width: 1.0;"/><polygon fill="none" points="1167.36,309.8659,1155.82,292.092,1175.92,298.792,1167.36,309.8659" style="stroke: #A80036; stroke-width: 1.0;"/><!--MD5=[028ddbb55d28cdb100ce5c53a7e44340]
reverse link Event to SensorRegistered--><path d="M1175.67,275.757 C1236.19,299.375 1316.88,330.8594 1370.99,351.9749 " fill="none" id="Event&lt;-SensorRegistered" style="stroke: #A80036; stroke-width: 1.0;"/><polygon fill="none" points="1172.87,282.18,1156.78,268.389,1177.96,269.138,1172.87,282.18" style="stroke: #A80036; stroke-width: 1.0;"/><!--MD5=[9d32b2cac942250f811a04c11b988016]
reverse link Event to SensorRelocated--><path d="M1176.39,264.414 C1262.15,286.01 1399.53,320.852 1518,352 C1523.62,353.4772 1529.44,355.0227 1535.29,356.5835 " fill="none" id="Event&lt;-SensorRelocated" style="stroke: #A80036; stroke-width: 1.0;"/><polygon fill="none" points="1174.48,271.153,1156.8,259.484,1177.9,257.576,1174.48,271.153" style="stroke: #A80036; stroke-width: 1.0;"/><!--MD5=[6d7ce5bdb623c2816ea50d86adaf4674]
reverse link Event to SensorOwnershipShared--><path d="M1176.51,257.979 C1291.75,278.131 1505.95,316.2015 1688,352 C1693.69,353.1195 1699.55,354.2925 1705.45,355.491 " fill="none" id="Event&lt;-SensorOwnershipShared" style="stroke: #A80036; stroke-width: 1.0;"/><polygon fill="none" points="1175.01,264.823,1156.51,254.488,1177.42,251.032,1175.01,264.823" style="stroke: #A80036; stroke-width: 1.0;"/><!--MD5=[0cb88da8e89a7528cdae83ab64f2171a]
reverse link Event to SensorOwnershipTransferred--><path d="M1176.79,253.219 C1324.46,270.674 1640.55,309.4974 1906,352 C1911.68,352.9102 1917.51,353.8784 1923.39,354.8828 " fill="none" id="Event&lt;-SensorOwnershipTransferred" style="stroke: #A80036; stroke-width: 1.0;"/><polygon fill="none" points="1175.72,260.142,1156.67,250.851,1177.36,246.238,1175.72,260.142" style="stroke: #A80036; stroke-width: 1.0;"/><!--MD5=[41c648fc3a4d3706c151969e941e3b5c]
reverse link Event to SensorUpdated--><path d="M1176.66,247.104 C1356.56,255.936 1792.98,283.183 2152,352 C2157.6,353.0733 2163.37,354.3533 2169.14,355.7523 " fill="none" id="Event&lt;-SensorUpdated" style="stroke: #A80036; stroke-width: 1.0;"/><polygon fill="none" points="1176.17,254.088,1156.52,246.14,1176.84,240.104,1176.17,254.088" style="stroke: #A80036; stroke-width: 1.0;"/><!--MD5=[f7b1d8897d3823b7d6aee735d97f5c34]
@startuml
abstract class Event implements IEvent {
    +streamId: string
    +eventType: string
    +data: object
    +metadata: object
}
class OwnerDeleted extends Event
class OwnerRegistered extends Event
class OwnerUpdated extends Event
class EventType {
    -supportedTypes: { [key: string]: any; }
    +getType(eventType: string): any
    -add(event: any): void
}
class SensorActivated extends Event
class DatastreamAdded extends Event
class DatastreamDeleted extends Event
class SensorDeactivated extends Event
class SensorDeleted extends Event
class LocationBody {
    +x: number
    +y: number
    +z: number
    +epsgCode: number
    +baseObjectId: string
}
class SensorRegistered extends Event
class SensorRelocated extends Event
class SensorOwnershipShared extends Event
class SensorOwnershipTransferred extends Event
class SensorUpdated extends Event
class EventType {
    -supportedTypes: { [key: string]: any; }
    +getType(eventType: string): any
    -add(event: any): void
}
@enduml

PlantUML version 1.2020.11(Sat May 30 10:13:43 UTC 2020)
(GPL source distribution)
Java Runtime: Java(TM) SE Runtime Environment
JVM: Java HotSpot(TM) 64-Bit Server VM
Default Encoding: UTF-8
Language: en
Country: US
--></g></svg>